<?xml version="1.0" encoding="UTF-8" standalone="no"?>
<!-- Created with Inkscape (http://www.inkscape.org/) -->

<svg
   width="107.1472mm"
   height="47.02599mm"
   viewBox="0 0 107.1472 47.02599"
   version="1.1"
   id="svg1638"
   inkscape:version="1.2.2 (1:1.2.2+202212051552+b0a8486541)"
   sodipodi:docname="diagram_prop.svg"
   inkscape:export-filename="diagram_prop.pdf"
   inkscape:export-xdpi="300"
   inkscape:export-ydpi="300"
   xmlns:inkscape="http://www.inkscape.org/namespaces/inkscape"
   xmlns:sodipodi="http://sodipodi.sourceforge.net/DTD/sodipodi-0.dtd"
   xmlns="http://www.w3.org/2000/svg"
   xmlns:svg="http://www.w3.org/2000/svg">
  <sodipodi:namedview
     id="namedview1640"
     pagecolor="#ffffff"
     bordercolor="#666666"
     borderopacity="1.0"
     inkscape:showpageshadow="2"
     inkscape:pageopacity="0.0"
     inkscape:pagecheckerboard="0"
     inkscape:deskcolor="#d1d1d1"
     inkscape:document-units="mm"
     showgrid="false"
     inkscape:zoom="2.3786088"
     inkscape:cx="91.229799"
     inkscape:cy="89.548143"
     inkscape:window-width="1920"
     inkscape:window-height="1043"
     inkscape:window-x="0"
     inkscape:window-y="0"
     inkscape:window-maximized="1"
     inkscape:current-layer="layer1" />
  <defs
     id="defs1635">
    <clipPath
       id="clipPath9750">
      <path
         d="m 9,0 h 9 V 11.953125 H 9 Z m 0,0"
         id="path844" />
    </clipPath>
    <clipPath
       id="clipPath6291">
      <path
         d="m 33,3 h 6 v 8.953125 h -6 z m 0,0"
         id="path8773" />
    </clipPath>
    <clipPath
       id="clipPath6684">
      <path
         d="m 43,0 h 4 v 11.953125 h -4 z m 0,0"
         id="path9432" />
    </clipPath>
    <marker
       style="overflow:visible"
       id="RoundedArrow-9-3"
       refX="0"
       refY="0"
       orient="auto-start-reverse"
       inkscape:stockid="RoundedArrow"
       markerWidth="6.1347523"
       markerHeight="5.9304948"
       viewBox="0 0 6.1347524 5.9304951"
       inkscape:isstock="true"
       inkscape:collect="always"
       preserveAspectRatio="xMidYMid"
       markerUnits="strokeWidth">
      <path
         transform="scale(0.7)"
         d="m -0.21114562,-4.1055728 6.42229122,3.21114561 a 1,1 90 0 1 0,1.78885438 L -0.21114562,4.1055728 A 1.236068,1.236068 31.717474 0 1 -2,3 v -6 a 1.236068,1.236068 148.28253 0 1 1.78885438,-1.1055728 z"
         style="fill:context-stroke;fill-rule:evenodd;stroke:none"
         id="path1367-1-6" />
    </marker>
    <marker
       style="overflow:visible"
       id="RoundedArrow-9-3-0"
       refX="0"
       refY="0"
       orient="auto-start-reverse"
       inkscape:stockid="RoundedArrow"
       markerWidth="6.1347523"
       markerHeight="5.9304953"
       viewBox="0 0 6.1347524 5.9304951"
       inkscape:isstock="true"
       inkscape:collect="always"
       preserveAspectRatio="xMidYMid"
       markerUnits="strokeWidth">
      <path
         transform="scale(0.7)"
         d="m -0.21114562,-4.1055728 6.42229122,3.21114561 a 1,1 90 0 1 0,1.78885438 L -0.21114562,4.1055728 A 1.236068,1.236068 31.717474 0 1 -2,3 v -6 a 1.236068,1.236068 148.28253 0 1 1.78885438,-1.1055728 z"
         style="fill:context-stroke;fill-rule:evenodd;stroke:none"
         id="path1367-1-6-9" />
    </marker>
    <marker
       style="overflow:visible"
       id="RoundedArrow-9-3-1"
       refX="4"
       refY="-0.40000001"
       orient="auto-start-reverse"
       inkscape:stockid="RoundedArrow"
       markerWidth="6.1347523"
       markerHeight="5.9304948"
       viewBox="0 0 6.1347524 5.9304951"
       inkscape:isstock="true"
       inkscape:collect="always"
       preserveAspectRatio="xMidYMid"
       markerUnits="strokeWidth">
      <path
         transform="scale(0.7)"
         d="m -0.21114562,-4.1055728 6.42229122,3.21114561 a 1,1 90 0 1 0,1.78885438 L -0.21114562,4.1055728 A 1.236068,1.236068 31.717474 0 1 -2,3 v -6 a 1.236068,1.236068 148.28253 0 1 1.78885438,-1.1055728 z"
         style="fill:context-stroke;fill-rule:evenodd;stroke:none"
         id="path1367-1-6-8" />
    </marker>
    <clipPath
       id="clipPath7716">
      <path
         d="m 3,6 h 5 v 4.628906 H 3 Z m 0,0"
         id="path6258" />
    </clipPath>
    <clipPath
       id="clipPath5811">
      <path
         d="m 8,3 h 6 v 7.628906 H 8 Z m 0,0"
         id="path4513" />
    </clipPath>
    <clipPath
       id="clipPath3157">
      <path
         d="m 14,4 h 4 v 6.628906 h -4 z m 0,0"
         id="path2969" />
    </clipPath>
    <marker
       style="overflow:visible"
       id="RoundedArrow-9-3-06"
       refX="0"
       refY="0"
       orient="auto-start-reverse"
       inkscape:stockid="RoundedArrow"
       markerWidth="6.1347523"
       markerHeight="5.9304948"
       viewBox="0 0 6.1347524 5.9304951"
       inkscape:isstock="true"
       inkscape:collect="always"
       preserveAspectRatio="xMidYMid"
       markerUnits="strokeWidth">
      <path
         transform="scale(0.7)"
         d="m -0.21114562,-4.1055728 6.42229122,3.21114561 a 1,1 90 0 1 0,1.78885438 L -0.21114562,4.1055728 A 1.236068,1.236068 31.717474 0 1 -2,3 v -6 a 1.236068,1.236068 148.28253 0 1 1.78885438,-1.1055728 z"
         style="fill:context-stroke;fill-rule:evenodd;stroke:none"
         id="path1367-1-6-2" />
    </marker>
    <marker
       style="overflow:visible"
       id="RoundedArrow-9-3-0-61"
       refX="0"
       refY="0"
       orient="auto-start-reverse"
       inkscape:stockid="RoundedArrow"
       markerWidth="6.1347523"
       markerHeight="5.9304953"
       viewBox="0 0 6.1347524 5.9304951"
       inkscape:isstock="true"
       inkscape:collect="always"
       preserveAspectRatio="xMidYMid"
       markerUnits="strokeWidth">
      <path
         transform="scale(0.7)"
         d="m -0.21114562,-4.1055728 6.42229122,3.21114561 a 1,1 90 0 1 0,1.78885438 L -0.21114562,4.1055728 A 1.236068,1.236068 31.717474 0 1 -2,3 v -6 a 1.236068,1.236068 148.28253 0 1 1.78885438,-1.1055728 z"
         style="fill:context-stroke;fill-rule:evenodd;stroke:none"
         id="path1367-1-6-9-8" />
    </marker>
    <marker
       style="overflow:visible"
       id="RoundedArrow-9-3-06-9"
       refX="0"
       refY="0"
       orient="auto-start-reverse"
       inkscape:stockid="RoundedArrow"
       markerWidth="6.1347523"
       markerHeight="5.9304948"
       viewBox="0 0 6.1347524 5.9304951"
       inkscape:isstock="true"
       inkscape:collect="always"
       preserveAspectRatio="xMidYMid"
       markerUnits="strokeWidth">
      <path
         transform="scale(0.7)"
         d="m -0.21114562,-4.1055728 6.42229122,3.21114561 a 1,1 90 0 1 0,1.78885438 L -0.21114562,4.1055728 A 1.236068,1.236068 31.717474 0 1 -2,3 v -6 a 1.236068,1.236068 148.28253 0 1 1.78885438,-1.1055728 z"
         style="fill:context-stroke;fill-rule:evenodd;stroke:none"
         id="path1367-1-6-2-2" />
    </marker>
    <marker
       style="overflow:visible"
       id="RoundedArrow-9-3-0-61-0"
       refX="0"
       refY="0"
       orient="auto-start-reverse"
       inkscape:stockid="RoundedArrow"
       markerWidth="6.1347523"
       markerHeight="5.9304953"
       viewBox="0 0 6.1347524 5.9304951"
       inkscape:isstock="true"
       inkscape:collect="always"
       preserveAspectRatio="xMidYMid"
       markerUnits="strokeWidth">
      <path
         transform="scale(0.7)"
         d="m -0.21114562,-4.1055728 6.42229122,3.21114561 a 1,1 90 0 1 0,1.78885438 L -0.21114562,4.1055728 A 1.236068,1.236068 31.717474 0 1 -2,3 v -6 a 1.236068,1.236068 148.28253 0 1 1.78885438,-1.1055728 z"
         style="fill:context-stroke;fill-rule:evenodd;stroke:none"
         id="path1367-1-6-9-8-2" />
    </marker>
    <marker
       style="overflow:visible"
       id="RoundedArrow-9-3-3"
       refX="0"
       refY="0"
       orient="auto-start-reverse"
       inkscape:stockid="RoundedArrow"
       markerWidth="6.1347523"
       markerHeight="5.9304948"
       viewBox="0 0 6.1347524 5.9304951"
       inkscape:isstock="true"
       inkscape:collect="always"
       preserveAspectRatio="xMidYMid"
       markerUnits="strokeWidth">
      <path
         transform="scale(0.7)"
         d="m -0.21114562,-4.1055728 6.42229122,3.21114561 a 1,1 90 0 1 0,1.78885438 L -0.21114562,4.1055728 A 1.236068,1.236068 31.717474 0 1 -2,3 v -6 a 1.236068,1.236068 148.28253 0 1 1.78885438,-1.1055728 z"
         style="fill:context-stroke;fill-rule:evenodd;stroke:none"
         id="path1367-1-6-7" />
    </marker>
    <marker
       style="overflow:visible"
       id="RoundedArrow-9-3-0-5"
       refX="0"
       refY="0"
       orient="auto-start-reverse"
       inkscape:stockid="RoundedArrow"
       markerWidth="6.1347523"
       markerHeight="5.9304953"
       viewBox="0 0 6.1347524 5.9304951"
       inkscape:isstock="true"
       inkscape:collect="always"
       preserveAspectRatio="xMidYMid"
       markerUnits="strokeWidth">
      <path
         transform="scale(0.7)"
         d="m -0.21114562,-4.1055728 6.42229122,3.21114561 a 1,1 90 0 1 0,1.78885438 L -0.21114562,4.1055728 A 1.236068,1.236068 31.717474 0 1 -2,3 v -6 a 1.236068,1.236068 148.28253 0 1 1.78885438,-1.1055728 z"
         style="fill:context-stroke;fill-rule:evenodd;stroke:none"
         id="path1367-1-6-9-9" />
    </marker>
    <clipPath
       id="clipPath3838">
      <path
         d="m 1,0 h 9 V 11.953125 H 1 Z m 0,0"
         id="path7356" />
    </clipPath>
    <clipPath
       id="clipPath4693">
      <path
         d="M 34,0 H 48 V 11.953125 H 34 Z m 0,0"
         id="path5456" />
    </clipPath>
    <clipPath
       id="clipPath8204">
      <path
         d="m 63,3 h 6 v 8.953125 h -6 z m 0,0"
         id="path853" />
    </clipPath>
    <clipPath
       id="clipPath9664">
      <path
         d="m 73,0 h 4 v 11.953125 h -4 z m 0,0"
         id="path4850" />
    </clipPath>
    <clipPath
       id="clipPath7372">
      <path
         d="m 1,0 h 9 V 11.953125 H 1 Z m 0,0"
         id="path7419" />
    </clipPath>
    <clipPath
       id="clipPath5987">
      <path
         d="m 34,0 h 3 v 11.953125 h -3 z m 0,0"
         id="path8786" />
    </clipPath>
    <clipPath
       id="clipPath4983">
      <path
         d="m 38,3 h 6 v 8.953125 h -6 z m 0,0"
         id="path3765" />
    </clipPath>
    <marker
       style="overflow:visible"
       id="RoundedArrow-9-3-1-2"
       refX="4"
       refY="-0.40000001"
       orient="auto-start-reverse"
       inkscape:stockid="RoundedArrow"
       markerWidth="6.1347523"
       markerHeight="5.9304948"
       viewBox="0 0 6.1347524 5.9304951"
       inkscape:isstock="true"
       inkscape:collect="always"
       preserveAspectRatio="xMidYMid"
       markerUnits="strokeWidth">
      <path
         transform="scale(0.7)"
         d="m -0.21114562,-4.1055728 6.42229122,3.21114561 a 1,1 90 0 1 0,1.78885438 L -0.21114562,4.1055728 A 1.236068,1.236068 31.717474 0 1 -2,3 v -6 a 1.236068,1.236068 148.28253 0 1 1.78885438,-1.1055728 z"
         style="fill:context-stroke;fill-rule:evenodd;stroke:none"
         id="path1367-1-6-8-9" />
    </marker>
    <marker
       style="overflow:visible"
       id="RoundedArrow-9-3-1-1"
       refX="4"
       refY="-0.40000001"
       orient="auto-start-reverse"
       inkscape:stockid="RoundedArrow"
       markerWidth="6.1347523"
       markerHeight="5.9304948"
       viewBox="0 0 6.1347524 5.9304951"
       inkscape:isstock="true"
       inkscape:collect="always"
       preserveAspectRatio="xMidYMid"
       markerUnits="strokeWidth">
      <path
         transform="scale(0.7)"
         d="m -0.21114562,-4.1055728 6.42229122,3.21114561 a 1,1 90 0 1 0,1.78885438 L -0.21114562,4.1055728 A 1.236068,1.236068 31.717474 0 1 -2,3 v -6 a 1.236068,1.236068 148.28253 0 1 1.78885438,-1.1055728 z"
         style="fill:context-stroke;fill-rule:evenodd;stroke:none"
         id="path1367-1-6-8-94" />
    </marker>
    <marker
       style="overflow:visible"
       id="RoundedArrow-2"
       refX="4"
       refY="-0.40000001"
       orient="auto-start-reverse"
       inkscape:stockid="RoundedArrow"
       markerWidth="6.1347523"
       markerHeight="5.9304953"
       viewBox="0 0 6.1347524 5.9304951"
       inkscape:isstock="true"
       inkscape:collect="always"
       preserveAspectRatio="xMidYMid"
       markerUnits="strokeWidth">
      <path
         transform="scale(0.7)"
         d="m -0.21114562,-4.1055728 6.42229122,3.21114561 a 1,1 90 0 1 0,1.78885438 L -0.21114562,4.1055728 A 1.236068,1.236068 31.717474 0 1 -2,3 v -6 a 1.236068,1.236068 148.28253 0 1 1.78885438,-1.1055728 z"
         style="fill:context-stroke;fill-rule:evenodd;stroke:none"
         id="path1367-61" />
    </marker>
    <marker
       style="overflow:visible"
       id="RoundedArrow-2-7"
       refX="4"
       refY="-0.40000001"
       orient="auto-start-reverse"
       inkscape:stockid="RoundedArrow"
       markerWidth="6.1347523"
       markerHeight="5.9304953"
       viewBox="0 0 6.1347524 5.9304951"
       inkscape:isstock="true"
       inkscape:collect="always"
       preserveAspectRatio="xMidYMid"
       markerUnits="strokeWidth">
      <path
         transform="scale(0.7)"
         d="m -0.21114562,-4.1055728 6.42229122,3.21114561 a 1,1 90 0 1 0,1.78885438 L -0.21114562,4.1055728 A 1.236068,1.236068 31.717474 0 1 -2,3 v -6 a 1.236068,1.236068 148.28253 0 1 1.78885438,-1.1055728 z"
         style="fill:context-stroke;fill-rule:evenodd;stroke:none"
         id="path1367-61-9" />
    </marker>
    <clipPath
       id="clipPath8372">
      <path
         d="m 10,1 h 9 v 7.488281 h -9 z m 0,0"
         id="path7790" />
    </clipPath>
    <clipPath
       id="clipPath3219">
      <path
         d="m 10,1 h 4 v 7.488281 h -4 z m 0,0"
         id="path3202" />
    </clipPath>
    <clipPath
       id="clipPath6167">
      <path
         d="m 14,1 h 5 v 7.488281 h -5 z m 0,0"
         id="path3590" />
    </clipPath>
    <marker
       style="overflow:visible"
       id="RoundedArrow-9-3-06-9-2"
       refX="0"
       refY="0"
       orient="auto-start-reverse"
       inkscape:stockid="RoundedArrow"
       markerWidth="4"
       markerHeight="4"
       viewBox="0 0 6.1347524 5.9304951"
       inkscape:isstock="true"
       inkscape:collect="always"
       preserveAspectRatio="none"
       markerUnits="strokeWidth">
      <path
         transform="scale(0.7)"
         d="m -0.21114562,-4.1055728 6.42229122,3.21114561 a 1,1 90 0 1 0,1.78885438 L -0.21114562,4.1055728 A 1.236068,1.236068 31.717474 0 1 -2,3 v -6 a 1.236068,1.236068 148.28253 0 1 1.78885438,-1.1055728 z"
         style="fill:context-stroke;fill-rule:evenodd;stroke:none"
         id="path1367-1-6-2-2-9" />
    </marker>
    <marker
       style="overflow:visible"
       id="RoundedArrow-9-3-0-61-0-1"
       refX="0"
       refY="0"
       orient="auto-start-reverse"
       inkscape:stockid="RoundedArrow"
       markerWidth="4"
       markerHeight="4"
       viewBox="0 0 6.1347524 5.9304951"
       inkscape:isstock="true"
       inkscape:collect="always"
       preserveAspectRatio="none"
       markerUnits="strokeWidth">
      <path
         transform="scale(0.7)"
         d="m -0.21114562,-4.1055728 6.42229122,3.21114561 a 1,1 90 0 1 0,1.78885438 L -0.21114562,4.1055728 A 1.236068,1.236068 31.717474 0 1 -2,3 v -6 a 1.236068,1.236068 148.28253 0 1 1.78885438,-1.1055728 z"
         style="fill:context-stroke;fill-rule:evenodd;stroke:none"
         id="path1367-1-6-9-8-2-2" />
    </marker>
    <marker
       style="overflow:visible"
       id="RoundedArrow-9-3-06-9-2-9"
       refX="0"
       refY="0"
       orient="auto-start-reverse"
       inkscape:stockid="RoundedArrow"
       markerWidth="4"
       markerHeight="4"
       viewBox="0 0 6.1347524 5.9304951"
       inkscape:isstock="true"
       inkscape:collect="always"
       preserveAspectRatio="none"
       markerUnits="strokeWidth">
      <path
         transform="scale(0.7)"
         d="m -0.21114562,-4.1055728 6.42229122,3.21114561 a 1,1 90 0 1 0,1.78885438 L -0.21114562,4.1055728 A 1.236068,1.236068 31.717474 0 1 -2,3 v -6 a 1.236068,1.236068 148.28253 0 1 1.78885438,-1.1055728 z"
         style="fill:context-stroke;fill-rule:evenodd;stroke:none"
         id="path1367-1-6-2-2-9-3" />
    </marker>
    <marker
       style="overflow:visible"
       id="RoundedArrow-9-3-0-61-0-1-6"
       refX="0"
       refY="0"
       orient="auto-start-reverse"
       inkscape:stockid="RoundedArrow"
       markerWidth="4"
       markerHeight="4"
       viewBox="0 0 6.1347524 5.9304951"
       inkscape:isstock="true"
       inkscape:collect="always"
       preserveAspectRatio="none"
       markerUnits="strokeWidth">
      <path
         transform="scale(0.7)"
         d="m -0.21114562,-4.1055728 6.42229122,3.21114561 a 1,1 90 0 1 0,1.78885438 L -0.21114562,4.1055728 A 1.236068,1.236068 31.717474 0 1 -2,3 v -6 a 1.236068,1.236068 148.28253 0 1 1.78885438,-1.1055728 z"
         style="fill:context-stroke;fill-rule:evenodd;stroke:none"
         id="path1367-1-6-9-8-2-2-0" />
    </marker>
    <marker
       style="overflow:visible"
       id="RoundedArrow-9-3-06-9-2-9-2"
       refX="0"
       refY="0"
       orient="auto-start-reverse"
       inkscape:stockid="RoundedArrow"
       markerWidth="4"
       markerHeight="4"
       viewBox="0 0 6.1347524 5.9304951"
       inkscape:isstock="true"
       inkscape:collect="always"
       preserveAspectRatio="none"
       markerUnits="strokeWidth">
      <path
         transform="scale(0.7)"
         d="m -0.21114562,-4.1055728 6.42229122,3.21114561 a 1,1 90 0 1 0,1.78885438 L -0.21114562,4.1055728 A 1.236068,1.236068 31.717474 0 1 -2,3 v -6 a 1.236068,1.236068 148.28253 0 1 1.78885438,-1.1055728 z"
         style="fill:context-stroke;fill-rule:evenodd;stroke:none"
         id="path1367-1-6-2-2-9-3-6" />
    </marker>
    <marker
       style="overflow:visible"
       id="RoundedArrow-9-3-0-61-0-1-6-1"
       refX="0"
       refY="0"
       orient="auto-start-reverse"
       inkscape:stockid="RoundedArrow"
       markerWidth="4"
       markerHeight="4"
       viewBox="0 0 6.1347524 5.9304951"
       inkscape:isstock="true"
       inkscape:collect="always"
       preserveAspectRatio="none"
       markerUnits="strokeWidth">
      <path
         transform="scale(0.7)"
         d="m -0.21114562,-4.1055728 6.42229122,3.21114561 a 1,1 90 0 1 0,1.78885438 L -0.21114562,4.1055728 A 1.236068,1.236068 31.717474 0 1 -2,3 v -6 a 1.236068,1.236068 148.28253 0 1 1.78885438,-1.1055728 z"
         style="fill:context-stroke;fill-rule:evenodd;stroke:none"
         id="path1367-1-6-9-8-2-2-0-8" />
    </marker>
    <marker
       style="overflow:visible"
       id="RoundedArrow-9-3-06-9-2-9-20"
       refX="0"
       refY="0"
       orient="auto-start-reverse"
       inkscape:stockid="RoundedArrow"
       markerWidth="4"
       markerHeight="4"
       viewBox="0 0 6.1347524 5.9304951"
       inkscape:isstock="true"
       inkscape:collect="always"
       preserveAspectRatio="none"
       markerUnits="strokeWidth">
      <path
         transform="scale(0.7)"
         d="m -0.21114562,-4.1055728 6.42229122,3.21114561 a 1,1 90 0 1 0,1.78885438 L -0.21114562,4.1055728 A 1.236068,1.236068 31.717474 0 1 -2,3 v -6 a 1.236068,1.236068 148.28253 0 1 1.78885438,-1.1055728 z"
         style="fill:context-stroke;fill-rule:evenodd;stroke:none"
         id="path1367-1-6-2-2-9-3-2" />
    </marker>
    <marker
       style="overflow:visible"
       id="RoundedArrow-9-3-0-61-0-1-6-3"
       refX="0"
       refY="0"
       orient="auto-start-reverse"
       inkscape:stockid="RoundedArrow"
       markerWidth="4"
       markerHeight="4"
       viewBox="0 0 6.1347524 5.9304951"
       inkscape:isstock="true"
       inkscape:collect="always"
       preserveAspectRatio="none"
       markerUnits="strokeWidth">
      <path
         transform="scale(0.7)"
         d="m -0.21114562,-4.1055728 6.42229122,3.21114561 a 1,1 90 0 1 0,1.78885438 L -0.21114562,4.1055728 A 1.236068,1.236068 31.717474 0 1 -2,3 v -6 a 1.236068,1.236068 148.28253 0 1 1.78885438,-1.1055728 z"
         style="fill:context-stroke;fill-rule:evenodd;stroke:none"
         id="path1367-1-6-9-8-2-2-0-7" />
    </marker>
    <marker
       style="overflow:visible"
       id="RoundedArrow-9-3-06-9-2-9-9"
       refX="0"
       refY="0"
       orient="auto-start-reverse"
       inkscape:stockid="RoundedArrow"
       markerWidth="4"
       markerHeight="4"
       viewBox="0 0 6.1347524 5.9304951"
       inkscape:isstock="true"
       inkscape:collect="always"
       preserveAspectRatio="none"
       markerUnits="strokeWidth">
      <path
         transform="scale(0.7)"
         d="m -0.21114562,-4.1055728 6.42229122,3.21114561 a 1,1 90 0 1 0,1.78885438 L -0.21114562,4.1055728 A 1.236068,1.236068 31.717474 0 1 -2,3 v -6 a 1.236068,1.236068 148.28253 0 1 1.78885438,-1.1055728 z"
         style="fill:context-stroke;fill-rule:evenodd;stroke:none"
         id="path1367-1-6-2-2-9-3-22" />
    </marker>
    <marker
       style="overflow:visible"
       id="RoundedArrow-9-3-0-61-0-1-6-8"
       refX="0"
       refY="0"
       orient="auto-start-reverse"
       inkscape:stockid="RoundedArrow"
       markerWidth="4"
       markerHeight="4"
       viewBox="0 0 6.1347524 5.9304951"
       inkscape:isstock="true"
       inkscape:collect="always"
       preserveAspectRatio="none"
       markerUnits="strokeWidth">
      <path
         transform="scale(0.7)"
         d="m -0.21114562,-4.1055728 6.42229122,3.21114561 a 1,1 90 0 1 0,1.78885438 L -0.21114562,4.1055728 A 1.236068,1.236068 31.717474 0 1 -2,3 v -6 a 1.236068,1.236068 148.28253 0 1 1.78885438,-1.1055728 z"
         style="fill:context-stroke;fill-rule:evenodd;stroke:none"
         id="path1367-1-6-9-8-2-2-0-9" />
    </marker>
    <marker
       style="overflow:visible"
       id="RoundedArrow-9-3-06-9-2-9-6"
       refX="0"
       refY="0"
       orient="auto-start-reverse"
       inkscape:stockid="RoundedArrow"
       markerWidth="4"
       markerHeight="4"
       viewBox="0 0 6.1347524 5.9304951"
       inkscape:isstock="true"
       inkscape:collect="always"
       preserveAspectRatio="none"
       markerUnits="strokeWidth">
      <path
         transform="scale(0.7)"
         d="m -0.21114562,-4.1055728 6.42229122,3.21114561 a 1,1 90 0 1 0,1.78885438 L -0.21114562,4.1055728 A 1.236068,1.236068 31.717474 0 1 -2,3 v -6 a 1.236068,1.236068 148.28253 0 1 1.78885438,-1.1055728 z"
         style="fill:context-stroke;fill-rule:evenodd;stroke:none"
         id="path1367-1-6-2-2-9-3-1" />
    </marker>
    <marker
       style="overflow:visible"
       id="RoundedArrow-9-3-0-61-0-1-6-2"
       refX="0"
       refY="0"
       orient="auto-start-reverse"
       inkscape:stockid="RoundedArrow"
       markerWidth="4"
       markerHeight="4"
       viewBox="0 0 6.1347524 5.9304951"
       inkscape:isstock="true"
       inkscape:collect="always"
       preserveAspectRatio="none"
       markerUnits="strokeWidth">
      <path
         transform="scale(0.7)"
         d="m -0.21114562,-4.1055728 6.42229122,3.21114561 a 1,1 90 0 1 0,1.78885438 L -0.21114562,4.1055728 A 1.236068,1.236068 31.717474 0 1 -2,3 v -6 a 1.236068,1.236068 148.28253 0 1 1.78885438,-1.1055728 z"
         style="fill:context-stroke;fill-rule:evenodd;stroke:none"
         id="path1367-1-6-9-8-2-2-0-93" />
    </marker>
  </defs>
  <g
     inkscape:label="Layer 1"
     inkscape:groupmode="layer"
     id="layer1"
     transform="translate(-78.510924,-127.76651)">
    <rect
       style="fill:#a3b6d1;fill-opacity:1;stroke:#a3b6d1;stroke-width:0.201293;stroke-linecap:butt;stroke-linejoin:miter;stroke-miterlimit:4;stroke-dasharray:none;stroke-dashoffset:0;stroke-opacity:1"
       id="rect13086"
       width="2.9981327"
       height="2.9366868"
       x="84.759338"
       y="149.66096" />
    <path
       style="fill:none;stroke:#a3b6d1;stroke-width:0.27375;stroke-linecap:butt;stroke-linejoin:miter;stroke-dasharray:none;stroke-opacity:1"
       d="m 86.258444,161.4223 -6.249598,11.84928 12.499189,0.022 z"
       id="path155-7"
       sodipodi:nodetypes="cccc" />
    <g
       inkscape:label=""
       transform="translate(92.516595,161.65689)"
       id="g3636">
      <g
         id="surface1"
         transform="matrix(0.352778,0,0,0.352778,-0.192925,9.7028e-4)">
        <g
           style="fill:#000000;fill-opacity:1"
           id="g56">
          <g
             id="use54"
             transform="translate(0,8.9659996)">
            <path
               style="stroke:none"
               d="m 3.03125,-8 c 0.015625,-0.046875 0.046875,-0.109375 0.046875,-0.171875 0,-0.125 -0.125,-0.125 -0.15625,-0.125 0,0 -0.4375,0.03125 -0.65625,0.0625 -0.203125,0.015625 -0.375,0.03125 -0.59375,0.046875 -0.28125,0.03125 -0.375,0.03125 -0.375,0.25 0,0.125 0.125,0.125 0.25,0.125 0.609375,0 0.609375,0.109375 0.609375,0.21875 0,0.046875 0,0.078125 -0.0625,0.296875 L 0.609375,-1.375 c -0.03125,0.125 -0.0625,0.234375 -0.0625,0.421875 0,0.59375 0.4375,1.078125 1.0625,1.078125 0.390625,0 0.65625,-0.265625 0.84375,-0.640625 0.203125,-0.390625 0.375,-1.140625 0.375,-1.1875 0,-0.0625 -0.0625,-0.109375 -0.125,-0.109375 -0.109375,0 -0.125,0.0625 -0.171875,0.234375 C 2.3125,-0.75 2.109375,-0.125 1.625,-0.125 c -0.359375,0 -0.359375,-0.375 -0.359375,-0.546875 0,-0.046875 0,-0.296875 0.078125,-0.625 z m 0,0"
               id="path95" />
          </g>
        </g>
        <g
           style="fill:#000000;fill-opacity:1"
           id="g60">
          <g
             id="use58"
             transform="translate(3.487,10.759)">
            <path
               style="stroke:none"
               d="m 3.953125,-2.90625 c 0,-0.609375 -0.34375,-0.609375 -0.390625,-0.609375 -0.1875,0 -0.40625,0.203125 -0.40625,0.40625 0,0.125 0.0625,0.1875 0.140625,0.25 0.171875,0.15625 0.28125,0.375 0.28125,0.640625 0,0.359375 -0.515625,2.078125 -1.4375,2.078125 -0.34375,0 -0.625,-0.1875 -0.625,-0.6875 0,-0.4375 0.25,-1.0625 0.4375,-1.546875 0.09375,-0.25 0.125,-0.3125 0.125,-0.46875 0,-0.421875 -0.359375,-0.671875 -0.71875,-0.671875 -0.796875,0 -1.125,1.125 -1.125,1.21875 0,0.078125 0.0625,0.109375 0.125,0.109375 0.109375,0 0.109375,-0.046875 0.140625,-0.125 0.203125,-0.703125 0.546875,-0.984375 0.828125,-0.984375 0.125,0 0.1875,0.078125 0.1875,0.265625 0,0.1875 -0.0625,0.375 -0.140625,0.5625 -0.390625,1.015625 -0.421875,1.28125 -0.421875,1.515625 0,0.875 0.703125,1.03125 1.15625,1.03125 1.328125,0 1.84375,-2.375 1.84375,-2.984375 z m 0,0"
               id="path99" />
          </g>
        </g>
        <g
           clip-path="url(#clipPath9750)"
           clip-rule="nonzero"
           id="g68">
          <g
             style="fill:#000000;fill-opacity:1"
             id="g66">
            <g
               id="use62"
               transform="translate(8.3940001,8.9659996)">
              <path
                 style="stroke:none"
                 d="m 3.890625,2.90625 c 0,-0.03125 0,-0.0625 -0.203125,-0.265625 C 2.484375,1.4375 1.8125,-0.53125 1.8125,-2.96875 c 0,-2.328125 0.5625,-4.328125 1.953125,-5.734375 0.125,-0.109375 0.125,-0.125 0.125,-0.171875 0,-0.0625 -0.0625,-0.09375 -0.109375,-0.09375 -0.15625,0 -1.140625,0.859375 -1.71875,2.03125 -0.609375,1.21875 -0.890625,2.484375 -0.890625,3.96875 0,1.0625 0.171875,2.484375 0.78125,3.75 C 2.671875,2.21875 3.640625,3 3.78125,3 3.828125,3 3.890625,2.96875 3.890625,2.90625 Z m 0,0"
                 id="path103" />
            </g>
            <g
               id="use64"
               transform="translate(12.94654,8.9659996)">
              <path
                 style="stroke:none"
                 d="m 3.4375,-7.65625 c 0,-0.28125 0,-0.296875 -0.234375,-0.296875 C 2.921875,-7.625 2.3125,-7.1875 1.09375,-7.1875 v 0.34375 c 0.265625,0 0.859375,0 1.53125,-0.296875 v 6.21875 c 0,0.4375 -0.046875,0.578125 -1.09375,0.578125 h -0.375 V 0 c 0.328125,-0.03125 1.484375,-0.03125 1.875,-0.03125 0.40625,0 1.546875,0 1.875,0.03125 v -0.34375 h -0.375 c -1.046875,0 -1.09375,-0.140625 -1.09375,-0.578125 z m 0,0"
                 id="path107" />
            </g>
          </g>
        </g>
        <g
           style="fill:#000000;fill-opacity:1"
           id="g72">
          <g
             id="use70"
             transform="translate(21.455999,8.9659996)">
            <path
               style="stroke:none"
               d="m 7.875,-2.75 c 0.203125,0 0.421875,0 0.421875,-0.234375 0,-0.25 -0.21875,-0.25 -0.421875,-0.25 H 1.40625 c -0.203125,0 -0.421875,0 -0.421875,0.25 0,0.234375 0.21875,0.234375 0.421875,0.234375 z m 0,0"
               id="path111" />
          </g>
        </g>
        <g
           clip-path="url(#clipPath6291)"
           clip-rule="nonzero"
           id="g78">
          <g
             style="fill:#000000;fill-opacity:1"
             id="g76">
            <g
               id="use74"
               transform="translate(33.411999,8.9659996)">
              <path
                 style="stroke:none"
                 d="m 5.265625,-5.15625 c 0,-0.0625 -0.046875,-0.109375 -0.109375,-0.109375 -0.09375,0 -0.546875,0.4375 -0.78125,0.859375 -0.21875,-0.546875 -0.578125,-0.859375 -1.09375,-0.859375 -1.359375,0 -2.8125,1.734375 -2.8125,3.515625 0,1.171875 0.6875,1.875 1.5,1.875 0.640625,0 1.15625,-0.484375 1.40625,-0.765625 L 3.390625,-0.625 2.9375,1.171875 2.828125,1.609375 c -0.109375,0.34375 -0.28125,0.34375 -0.84375,0.359375 -0.125,0 -0.25,0 -0.25,0.234375 0,0.078125 0.078125,0.109375 0.15625,0.109375 0.171875,0 0.375,-0.015625 0.546875,-0.015625 h 1.21875 c 0.1875,0 0.390625,0.015625 0.5625,0.015625 0.078125,0 0.21875,0 0.21875,-0.21875 0,-0.125 -0.09375,-0.125 -0.28125,-0.125 -0.5625,0 -0.59375,-0.078125 -0.59375,-0.171875 0,-0.0625 0.015625,-0.078125 0.046875,-0.234375 z m -1.6875,3.734375 C 3.53125,-1.21875 3.53125,-1.1875 3.359375,-0.96875 3.09375,-0.640625 2.5625,-0.125 2.015625,-0.125 1.515625,-0.125 1.25,-0.5625 1.25,-1.265625 c 0,-0.65625 0.359375,-2 0.59375,-2.5 0.40625,-0.84375 0.96875,-1.265625 1.4375,-1.265625 0.78125,0 0.9375,0.984375 0.9375,1.078125 0,0.015625 -0.03125,0.15625 -0.046875,0.1875 z m 0,0"
                 id="path115" />
            </g>
          </g>
        </g>
        <g
           style="fill:#000000;fill-opacity:1"
           id="g82">
          <g
             id="use80"
             transform="translate(38.602001,10.759)">
            <path
               style="stroke:none"
               d="m 2.5,-5.078125 c 0,-0.21875 -0.015625,-0.21875 -0.234375,-0.21875 -0.328125,0.3125 -0.75,0.5 -1.5,0.5 v 0.265625 c 0.21875,0 0.640625,0 1.109375,-0.203125 v 4.078125 c 0,0.296875 -0.03125,0.390625 -0.78125,0.390625 H 0.8125 V 0 c 0.328125,-0.03125 1.015625,-0.03125 1.375,-0.03125 0.359375,0 1.046875,0 1.375,0.03125 V -0.265625 H 3.28125 c -0.75,0 -0.78125,-0.09375 -0.78125,-0.390625 z m 0,0"
               id="path119" />
          </g>
        </g>
        <g
           clip-path="url(#clipPath6684)"
           clip-rule="nonzero"
           id="g88">
          <g
             style="fill:#000000;fill-opacity:1"
             id="g86">
            <g
               id="use84"
               transform="translate(43.334,8.9659996)">
              <path
                 style="stroke:none"
                 d="M 3.375,-2.96875 C 3.375,-3.890625 3.25,-5.359375 2.578125,-6.75 1.875,-8.1875 0.890625,-8.96875 0.765625,-8.96875 c -0.046875,0 -0.109375,0.03125 -0.109375,0.09375 0,0.046875 0,0.0625 0.203125,0.265625 1.203125,1.203125 1.859375,3.1875 1.859375,5.625 0,2.3125 -0.5625,4.3125 -1.9375,5.71875 C 0.65625,2.84375 0.65625,2.875 0.65625,2.90625 0.65625,2.96875 0.71875,3 0.765625,3 0.921875,3 1.90625,2.140625 2.484375,0.96875 3.09375,-0.25 3.375,-1.546875 3.375,-2.96875 Z m 0,0"
                 id="path123" />
            </g>
          </g>
        </g>
      </g>
    </g>
    <path
       style="fill:none;stroke:#000000;stroke-width:0.264583px;stroke-linecap:butt;stroke-linejoin:miter;stroke-opacity:1;marker-end:url(#RoundedArrow-9-3)"
       d="m 92.105775,168.13539 c 9.096355,0 7.170791,0.0167 15.853835,0.0167"
       id="path6888-2-7"
       sodipodi:nodetypes="cc" />
    <path
       style="fill:none;stroke:#000000;stroke-width:0.264583px;stroke-linecap:butt;stroke-linejoin:miter;stroke-opacity:1;marker-end:url(#RoundedArrow-9-3-1)"
       d="m 93.347929,135.23679 c 9.096361,0 5.928637,0.0167 14.611681,0.0167"
       id="path6888-2-7-7"
       sodipodi:nodetypes="cc" />
    <path
       style="fill:none;stroke:#000000;stroke-width:0.264583px;stroke-linecap:butt;stroke-linejoin:miter;stroke-opacity:1;marker-end:url(#RoundedArrow-9-3-1-2)"
       d="m 122.50069,134.89035 c 9.0964,0 16.512,0.0167 25.19505,0.0167"
       id="path6888-2-7-7-3"
       sodipodi:nodetypes="cc" />
    <path
       style="fill:none;stroke:#000000;stroke-width:0.264583px;stroke-linecap:butt;stroke-linejoin:miter;stroke-opacity:1;marker-end:url(#RoundedArrow-9-3-1-1)"
       d="m 122.50069,167.60861 c 9.50011,0 17.48261,0.0167 26.25339,0.0167"
       id="path6888-2-7-7-7"
       sodipodi:nodetypes="cc" />
    <path
       style="fill:none;stroke:#000000;stroke-width:0.265;stroke-linecap:butt;stroke-linejoin:miter;stroke-dasharray:none;stroke-opacity:1;marker-start:url(#RoundedArrow-9-3);marker-end:url(#RoundedArrow-9-3-0)"
       d="m 86.258408,154.87408 c 8e-5,2.52088 0,1.36589 0,3.74646"
       id="path6888-2-7-3"
       sodipodi:nodetypes="cc" />
    <path
       style="fill:none;stroke:#000000;stroke-width:0.265;stroke-linecap:butt;stroke-linejoin:miter;stroke-dasharray:none;stroke-opacity:1;marker-start:url(#RoundedArrow-9-3-06);marker-end:url(#RoundedArrow-9-3-0-61)"
       d="m 86.305185,143.4155 c 8e-5,2.52088 0,1.36589 0,3.74646"
       id="path6888-2-7-3-7"
       sodipodi:nodetypes="cc" />
    <path
       style="fill:#a3b6d1;fill-opacity:1;stroke:#a3b6d1;stroke-width:0.27375;stroke-linecap:butt;stroke-linejoin:miter;stroke-dasharray:none;stroke-opacity:1"
       d="m 115.01992,161.4223 -6.2496,11.84928 12.49919,0.022 z"
       id="path155-3"
       sodipodi:nodetypes="cccc" />
    <text
       xml:space="preserve"
       style="font-weight:bold;font-size:5.64444px;line-height:1.25;font-family:'Bitstream Vera Sans Mono';-inkscape-font-specification:'Bitstream Vera Sans Mono, Bold';text-align:center;writing-mode:lr-tb;text-anchor:middle;fill:none;fill-opacity:1;stroke:#000000;stroke-width:0.357;stroke-linecap:butt;stroke-linejoin:miter;stroke-miterlimit:4;stroke-dasharray:none;stroke-dashoffset:0;stroke-opacity:1"
       x="-152.17419"
       y="82.677689"
       id="text12090-1-6"
       transform="rotate(-90)"><tspan
         sodipodi:role="line"
         id="tspan12088-29-2"
         style="font-style:normal;font-variant:normal;font-weight:500;font-stretch:normal;font-size:4.23333px;font-family:'CMU Sans Serif';-inkscape-font-specification:'CMU Sans Serif, Medium';font-variant-ligatures:normal;font-variant-caps:normal;font-variant-numeric:normal;font-variant-east-asian:normal;fill:#000000;fill-opacity:1;stroke:none;stroke-width:0.357"
         x="-152.17419"
         y="82.677689">interacts with</tspan></text>
    <ellipse
       style="fill:none;fill-opacity:1;stroke:#a3b6d1;stroke-width:0.26775;stroke-linejoin:bevel;stroke-dasharray:none;stroke-dashoffset:0;stroke-opacity:1"
       id="path4567-6"
       cx="86.258553"
       cy="134.97882"
       rx="5.9279099"
       ry="5.9279103" />
    <path
       style="fill:none;stroke:#a3b6d1;stroke-width:0.27375;stroke-linecap:butt;stroke-linejoin:miter;stroke-dasharray:none;stroke-opacity:1"
       d="m 155.18539,161.4223 -6.2496,11.84928 12.49919,0.022 z"
       id="path155-7-6"
       sodipodi:nodetypes="cccc" />
    <circle
       style="fill:none;fill-opacity:1;stroke:#a3b6d1;stroke-width:0.26775;stroke-linejoin:bevel;stroke-dasharray:none;stroke-dashoffset:0;stroke-opacity:1"
       id="path4567-6-1"
       cx="155.18562"
       cy="135.01288"
       r="5.9279103" />
    <ellipse
       style="fill:#a3b6d1;fill-opacity:1;stroke:#a3b6d1;stroke-width:0.26775;stroke-linejoin:bevel;stroke-dasharray:none;stroke-dashoffset:0;stroke-opacity:1"
       id="path4567"
       cx="115.0201"
       cy="135.01288"
       rx="5.9279099"
       ry="5.9279103" />
    <g
       inkscape:label=""
       transform="translate(97.781455,129.48026)"
       id="g3776">
      <g
         id="g3774"
         transform="matrix(0.352778,0,0,0.352778,-0.192925,-0.001808)">
        <g
           style="fill:#000000;fill-opacity:1"
           id="g38">
          <g
             id="use36"
             transform="translate(0,8.302)">
            <path
               style="stroke:none"
               d="m 3.03125,-8 c 0.015625,-0.046875 0.046875,-0.109375 0.046875,-0.171875 0,-0.125 -0.125,-0.125 -0.15625,-0.125 0,0 -0.4375,0.03125 -0.65625,0.0625 -0.203125,0.015625 -0.375,0.03125 -0.59375,0.046875 -0.28125,0.03125 -0.375,0.03125 -0.375,0.25 0,0.125 0.125,0.125 0.25,0.125 0.609375,0 0.609375,0.109375 0.609375,0.21875 0,0.046875 0,0.078125 -0.0625,0.296875 L 0.609375,-1.375 c -0.03125,0.125 -0.0625,0.234375 -0.0625,0.421875 0,0.59375 0.4375,1.078125 1.0625,1.078125 0.390625,0 0.65625,-0.265625 0.84375,-0.640625 0.203125,-0.390625 0.375,-1.140625 0.375,-1.1875 0,-0.0625 -0.0625,-0.109375 -0.125,-0.109375 -0.109375,0 -0.125,0.0625 -0.171875,0.234375 C 2.3125,-0.75 2.109375,-0.125 1.625,-0.125 c -0.359375,0 -0.359375,-0.375 -0.359375,-0.546875 0,-0.046875 0,-0.296875 0.078125,-0.625 z m 0,0"
               id="path63" />
          </g>
        </g>
        <g
           clip-path="url(#clipPath7716)"
           clip-rule="nonzero"
           id="g44">
          <g
             style="fill:#000000;fill-opacity:1"
             id="g42">
            <g
               id="use40"
               transform="translate(3.487,10.096)">
              <path
                 style="stroke:none"
                 d="m 3.953125,-2.90625 c 0,-0.609375 -0.34375,-0.609375 -0.390625,-0.609375 -0.1875,0 -0.40625,0.203125 -0.40625,0.40625 0,0.125 0.0625,0.1875 0.140625,0.25 0.171875,0.15625 0.28125,0.375 0.28125,0.640625 0,0.359375 -0.515625,2.078125 -1.4375,2.078125 -0.34375,0 -0.625,-0.1875 -0.625,-0.6875 0,-0.4375 0.25,-1.0625 0.4375,-1.546875 0.09375,-0.25 0.125,-0.3125 0.125,-0.46875 0,-0.421875 -0.359375,-0.671875 -0.71875,-0.671875 -0.796875,0 -1.125,1.125 -1.125,1.21875 0,0.078125 0.0625,0.109375 0.125,0.109375 0.109375,0 0.109375,-0.046875 0.140625,-0.125 0.203125,-0.703125 0.546875,-0.984375 0.828125,-0.984375 0.125,0 0.1875,0.078125 0.1875,0.265625 0,0.1875 -0.0625,0.375 -0.140625,0.5625 -0.390625,1.015625 -0.421875,1.28125 -0.421875,1.515625 0,0.875 0.703125,1.03125 1.15625,1.03125 1.328125,0 1.84375,-2.375 1.84375,-2.984375 z m 0,0"
                 id="path67" />
            </g>
          </g>
        </g>
        <g
           clip-path="url(#clipPath5811)"
           clip-rule="nonzero"
           id="g50">
          <g
             style="fill:#000000;fill-opacity:1"
             id="g48">
            <g
               id="use46"
               transform="translate(8.3940001,8.302)">
              <path
                 style="stroke:none"
                 d="m 5.265625,-5.15625 c 0,-0.0625 -0.046875,-0.109375 -0.109375,-0.109375 -0.09375,0 -0.546875,0.4375 -0.78125,0.859375 -0.21875,-0.546875 -0.578125,-0.859375 -1.09375,-0.859375 -1.359375,0 -2.8125,1.734375 -2.8125,3.515625 0,1.171875 0.6875,1.875 1.5,1.875 0.640625,0 1.15625,-0.484375 1.40625,-0.765625 L 3.390625,-0.625 2.9375,1.171875 2.828125,1.609375 c -0.109375,0.34375 -0.28125,0.34375 -0.84375,0.359375 -0.125,0 -0.25,0 -0.25,0.234375 0,0.078125 0.078125,0.109375 0.15625,0.109375 0.171875,0 0.375,-0.015625 0.546875,-0.015625 h 1.21875 c 0.1875,0 0.390625,0.015625 0.5625,0.015625 0.078125,0 0.21875,0 0.21875,-0.21875 0,-0.125 -0.09375,-0.125 -0.28125,-0.125 -0.5625,0 -0.59375,-0.078125 -0.59375,-0.171875 0,-0.0625 0.015625,-0.078125 0.046875,-0.234375 z m -1.6875,3.734375 C 3.53125,-1.21875 3.53125,-1.1875 3.359375,-0.96875 3.09375,-0.640625 2.5625,-0.125 2.015625,-0.125 1.515625,-0.125 1.25,-0.5625 1.25,-1.265625 c 0,-0.65625 0.359375,-2 0.59375,-2.5 0.40625,-0.84375 0.96875,-1.265625 1.4375,-1.265625 0.78125,0 0.9375,0.984375 0.9375,1.078125 0,0.015625 -0.03125,0.15625 -0.046875,0.1875 z m 0,0"
                 id="path71" />
            </g>
          </g>
        </g>
        <g
           clip-path="url(#clipPath3157)"
           clip-rule="nonzero"
           id="g3772">
          <g
             style="fill:#000000;fill-opacity:1"
             id="g54">
            <g
               id="use52"
               transform="translate(13.585,10.096)">
              <path
                 style="stroke:none"
                 d="m 2.25,-1.625 c 0.125,-0.125 0.453125,-0.390625 0.59375,-0.5 0.484375,-0.453125 0.953125,-0.890625 0.953125,-1.609375 0,-0.953125 -0.796875,-1.5625 -1.78125,-1.5625 -0.96875,0 -1.59375,0.71875 -1.59375,1.4375 0,0.390625 0.3125,0.4375 0.421875,0.4375 0.171875,0 0.421875,-0.109375 0.421875,-0.421875 0,-0.40625 -0.40625,-0.40625 -0.5,-0.40625 C 1,-4.84375 1.53125,-5.03125 1.921875,-5.03125 c 0.734375,0 1.125,0.625 1.125,1.296875 0,0.828125 -0.578125,1.4375 -1.53125,2.390625 l -1,1.046875 C 0.421875,-0.21875 0.421875,-0.203125 0.421875,0 H 3.5625 l 0.234375,-1.421875 h -0.25 C 3.53125,-1.265625 3.46875,-0.875 3.375,-0.71875 c -0.046875,0.0625 -0.65625,0.0625 -0.78125,0.0625 H 1.171875 Z m 0,0"
                 id="path75" />
            </g>
          </g>
        </g>
      </g>
    </g>
    <text
       xml:space="preserve"
       style="font-size:4.23333px;line-height:0.95;font-family:'URW Palladio L';-inkscape-font-specification:'URW Palladio L';text-align:center;writing-mode:lr-tb;text-anchor:middle;fill:#000002;stroke-width:0.376999"
       x="89.448921"
       y="150.61151"
       id="text432"><tspan
         sodipodi:role="line"
         id="tspan430"
         style="font-style:normal;font-variant:normal;font-weight:normal;font-stretch:normal;font-family:cmu;-inkscape-font-specification:cmu;text-align:start;text-anchor:start;stroke-width:0.377"
         x="89.448921"
         y="150.61151">standard</tspan><tspan
         sodipodi:role="line"
         style="font-style:normal;font-variant:normal;font-weight:normal;font-stretch:normal;font-family:cmu;-inkscape-font-specification:cmu;text-align:start;text-anchor:start;stroke-width:0.377"
         x="89.448921"
         y="154.8035"
         id="tspan538">form</tspan></text>
    <rect
       style="fill:none;fill-opacity:1;stroke:#a3b6d1;stroke-width:0.201293;stroke-linecap:butt;stroke-linejoin:miter;stroke-miterlimit:4;stroke-dasharray:none;stroke-dashoffset:0;stroke-opacity:1"
       id="rect13086-2"
       width="2.9981327"
       height="2.9366868"
       x="113.52831"
       y="149.81078" />
    <path
       style="fill:none;stroke:#000000;stroke-width:0.265;stroke-linecap:butt;stroke-linejoin:miter;stroke-dasharray:none;stroke-opacity:1;marker-start:url(#RoundedArrow-9-3-3);marker-end:url(#RoundedArrow-9-3-0-5)"
       d="m 115.02733,155.02389 c 8e-5,2.52088 0,1.36589 0,3.74646"
       id="path6888-2-7-3-2"
       sodipodi:nodetypes="cc" />
    <path
       style="fill:none;stroke:#000000;stroke-width:0.265;stroke-linecap:butt;stroke-linejoin:miter;stroke-dasharray:none;stroke-opacity:1;marker-start:url(#RoundedArrow-9-3-06-9);marker-end:url(#RoundedArrow-9-3-0-61-0)"
       d="m 115.0741,143.56531 c 8e-5,2.52088 0,1.36589 0,3.74646"
       id="path6888-2-7-3-7-8"
       sodipodi:nodetypes="cc" />
    <path
       style="fill:none;stroke:#000000;stroke-width:0.155048;stroke-linecap:butt;stroke-linejoin:miter;stroke-dasharray:none;stroke-opacity:1;marker-start:url(#RoundedArrow-9-3-06-9-2);marker-end:url(#RoundedArrow-9-3-0-61-0-1)"
       d="m 172.87507,166.81439 c 1.17392,0.77142 0.63604,0.41801 1.7446,1.14656"
       id="path6888-2-7-3-7-8-7"
       sodipodi:nodetypes="cc" />
    <path
       style="fill:none;stroke:#000000;stroke-width:0.155048;stroke-linecap:butt;stroke-linejoin:miter;stroke-dasharray:none;stroke-opacity:1;marker-start:url(#RoundedArrow-9-3-06-9-2-9);marker-end:url(#RoundedArrow-9-3-0-61-0-1-6)"
       d="m 172.61077,158.9954 c -1.18227,0.75855 -0.64061,0.41097 -1.75713,1.12726"
       id="path6888-2-7-3-7-8-7-6"
       sodipodi:nodetypes="cc" />
    <path
       style="fill:none;stroke:#000000;stroke-width:0.155048;stroke-linecap:butt;stroke-linejoin:miter;stroke-dasharray:none;stroke-opacity:1;marker-start:url(#RoundedArrow-9-3-06-9-2-9-20);marker-end:url(#RoundedArrow-9-3-0-61-0-1-6-3)"
       d="m 174.72833,144.6162 c -1.33664,-0.43189 -0.72422,-0.23406 -1.98647,-0.64197"
       id="path6888-2-7-3-7-8-7-6-5"
       sodipodi:nodetypes="cc" />
    <path
       style="fill:none;stroke:#000000;stroke-width:0.155048;stroke-linecap:butt;stroke-linejoin:miter;stroke-dasharray:none;stroke-opacity:1;marker-start:url(#RoundedArrow-9-3-06-9-2-9-9);marker-end:url(#RoundedArrow-9-3-0-61-0-1-6-8)"
       d="m 181.57895,137.45828 c -0.28578,1.37531 -0.15488,0.74517 -0.42482,2.04395"
       id="path6888-2-7-3-7-8-7-6-73"
       sodipodi:nodetypes="cc" />
    <path
       style="fill:none;stroke:#000000;stroke-width:0.155048;stroke-linecap:butt;stroke-linejoin:miter;stroke-dasharray:none;stroke-opacity:1;marker-start:url(#RoundedArrow-9-3-06-9-2-9-6);marker-end:url(#RoundedArrow-9-3-0-61-0-1-6-2)"
       d="m 173.54918,135.89884 c -1.39789,-0.13804 -0.75742,-0.0748 -2.07752,-0.20526"
       id="path6888-2-7-3-7-8-7-6-1"
       sodipodi:nodetypes="cc" />
    <path
       style="fill:none;stroke:#000000;stroke-width:0.155048;stroke-linecap:butt;stroke-linejoin:miter;stroke-dasharray:none;stroke-opacity:1;marker-start:url(#RoundedArrow-9-3-06-9-2-9-2);marker-end:url(#RoundedArrow-9-3-0-61-0-1-6-1)"
       d="m 180.03817,164.61143 c 0.31032,1.36999 0.1681,0.74231 0.4611,2.03608"
       id="path6888-2-7-3-7-8-7-6-7"
       sodipodi:nodetypes="cc" />
    <text
       xml:space="preserve"
       style="font-size:4.23333px;line-height:0.95;font-family:'URW Palladio L';-inkscape-font-specification:'URW Palladio L';text-align:center;writing-mode:lr-tb;text-anchor:middle;fill:#000002;stroke-width:0.376999"
       x="118.21793"
       y="150.76132"
       id="text432-9"><tspan
         sodipodi:role="line"
         id="tspan430-7"
         style="font-style:normal;font-variant:normal;font-weight:normal;font-stretch:normal;font-family:cmu;-inkscape-font-specification:cmu;text-align:start;text-anchor:start;stroke-width:0.377"
         x="118.21793"
         y="150.76132">non-standard</tspan><tspan
         sodipodi:role="line"
         style="font-style:normal;font-variant:normal;font-weight:normal;font-stretch:normal;font-family:cmu;-inkscape-font-specification:cmu;text-align:start;text-anchor:start;stroke-width:0.377"
         x="118.21793"
         y="154.95331"
         id="tspan538-3">form</tspan></text>
    <g
       inkscape:label=""
       transform="translate(121.92064,120.44502)"
       id="g4258">
      <g
         id="g4256"
         transform="matrix(0.352778,0,0,0.352778,-0.25610168,8.506072)">
        <g
           clip-path="url(#clipPath3838)"
           clip-rule="nonzero"
           id="g63">
          <g
             style="fill:#000000;fill-opacity:1"
             id="g61">
            <g
               id="use57"
               transform="translate(0,8.9659996)">
              <path
                 style="stroke:none"
                 d="m 3.890625,2.90625 c 0,-0.03125 0,-0.0625 -0.203125,-0.265625 C 2.484375,1.4375 1.8125,-0.53125 1.8125,-2.96875 c 0,-2.328125 0.5625,-4.328125 1.953125,-5.734375 0.125,-0.109375 0.125,-0.125 0.125,-0.171875 0,-0.0625 -0.0625,-0.09375 -0.109375,-0.09375 -0.15625,0 -1.140625,0.859375 -1.71875,2.03125 -0.609375,1.21875 -0.890625,2.484375 -0.890625,3.96875 0,1.0625 0.171875,2.484375 0.78125,3.75 C 2.671875,2.21875 3.640625,3 3.78125,3 3.828125,3 3.890625,2.96875 3.890625,2.90625 Z m 0,0"
                 id="path112" />
            </g>
            <g
               id="use59"
               transform="translate(4.5525398,8.9659996)">
              <path
                 style="stroke:none"
                 d="m 3.4375,-7.65625 c 0,-0.28125 0,-0.296875 -0.234375,-0.296875 C 2.921875,-7.625 2.3125,-7.1875 1.09375,-7.1875 v 0.34375 c 0.265625,0 0.859375,0 1.53125,-0.296875 v 6.21875 c 0,0.4375 -0.046875,0.578125 -1.09375,0.578125 h -0.375 V 0 c 0.328125,-0.03125 1.484375,-0.03125 1.875,-0.03125 0.40625,0 1.546875,0 1.875,0.03125 v -0.34375 h -0.375 c -1.046875,0 -1.09375,-0.140625 -1.09375,-0.578125 z m 0,0"
                 id="path116" />
            </g>
          </g>
        </g>
        <g
           style="fill:#000000;fill-opacity:1"
           id="g67">
          <g
             id="use65"
             transform="translate(13.062,8.9659996)">
            <path
               style="stroke:none"
               d="m 7.875,-2.75 c 0.203125,0 0.421875,0 0.421875,-0.234375 0,-0.25 -0.21875,-0.25 -0.421875,-0.25 H 1.40625 c -0.203125,0 -0.421875,0 -0.421875,0.25 0,0.234375 0.21875,0.234375 0.421875,0.234375 z m 0,0"
               id="path120" />
          </g>
        </g>
        <g
           style="fill:#000000;fill-opacity:1"
           id="g71">
          <g
             id="use69"
             transform="translate(25.017,8.9659996)">
            <path
               style="stroke:none"
               d="m 3.03125,-8 c 0.015625,-0.046875 0.046875,-0.109375 0.046875,-0.171875 0,-0.125 -0.125,-0.125 -0.15625,-0.125 0,0 -0.4375,0.03125 -0.65625,0.0625 -0.203125,0.015625 -0.375,0.03125 -0.59375,0.046875 -0.28125,0.03125 -0.375,0.03125 -0.375,0.25 0,0.125 0.125,0.125 0.25,0.125 0.609375,0 0.609375,0.109375 0.609375,0.21875 0,0.046875 0,0.078125 -0.0625,0.296875 L 0.609375,-1.375 c -0.03125,0.125 -0.0625,0.234375 -0.0625,0.421875 0,0.59375 0.4375,1.078125 1.0625,1.078125 0.390625,0 0.65625,-0.265625 0.84375,-0.640625 0.203125,-0.390625 0.375,-1.140625 0.375,-1.1875 0,-0.0625 -0.0625,-0.109375 -0.125,-0.109375 -0.109375,0 -0.125,0.0625 -0.171875,0.234375 C 2.3125,-0.75 2.109375,-0.125 1.625,-0.125 c -0.359375,0 -0.359375,-0.375 -0.359375,-0.546875 0,-0.046875 0,-0.296875 0.078125,-0.625 z m 0,0"
               id="path124" />
          </g>
        </g>
        <g
           style="fill:#000000;fill-opacity:1"
           id="g75">
          <g
             id="use73"
             transform="translate(28.504,10.759)">
            <path
               style="stroke:none"
               d="m 3.953125,-2.90625 c 0,-0.609375 -0.34375,-0.609375 -0.390625,-0.609375 -0.1875,0 -0.40625,0.203125 -0.40625,0.40625 0,0.125 0.0625,0.1875 0.140625,0.25 0.171875,0.15625 0.28125,0.375 0.28125,0.640625 0,0.359375 -0.515625,2.078125 -1.4375,2.078125 -0.34375,0 -0.625,-0.1875 -0.625,-0.6875 0,-0.4375 0.25,-1.0625 0.4375,-1.546875 0.09375,-0.25 0.125,-0.3125 0.125,-0.46875 0,-0.421875 -0.359375,-0.671875 -0.71875,-0.671875 -0.796875,0 -1.125,1.125 -1.125,1.21875 0,0.078125 0.0625,0.109375 0.125,0.109375 0.109375,0 0.109375,-0.046875 0.140625,-0.125 0.203125,-0.703125 0.546875,-0.984375 0.828125,-0.984375 0.125,0 0.1875,0.078125 0.1875,0.265625 0,0.1875 -0.0625,0.375 -0.140625,0.5625 -0.390625,1.015625 -0.421875,1.28125 -0.421875,1.515625 0,0.875 0.703125,1.03125 1.15625,1.03125 1.328125,0 1.84375,-2.375 1.84375,-2.984375 z m 0,0"
               id="path128" />
          </g>
        </g>
        <g
           clip-path="url(#clipPath4693)"
           clip-rule="nonzero"
           id="g85">
          <g
             style="fill:#000000;fill-opacity:1"
             id="g83">
            <g
               id="use77"
               transform="translate(33.411999,8.9659996)">
              <path
                 style="stroke:none"
                 d="M 3.375,-2.96875 C 3.375,-3.890625 3.25,-5.359375 2.578125,-6.75 1.875,-8.1875 0.890625,-8.96875 0.765625,-8.96875 c -0.046875,0 -0.109375,0.03125 -0.109375,0.09375 0,0.046875 0,0.0625 0.203125,0.265625 1.203125,1.203125 1.859375,3.1875 1.859375,5.625 0,2.3125 -0.5625,4.3125 -1.9375,5.71875 C 0.65625,2.84375 0.65625,2.875 0.65625,2.90625 0.65625,2.96875 0.71875,3 0.765625,3 0.921875,3 1.90625,2.140625 2.484375,0.96875 3.09375,-0.25 3.375,-1.546875 3.375,-2.96875 Z m 0,0"
                 id="path132" />
            </g>
            <g
               id="use79"
               transform="translate(37.964539,8.9659996)">
              <path
                 style="stroke:none"
                 d="m 3.890625,2.90625 c 0,-0.03125 0,-0.0625 -0.203125,-0.265625 C 2.484375,1.4375 1.8125,-0.53125 1.8125,-2.96875 c 0,-2.328125 0.5625,-4.328125 1.953125,-5.734375 0.125,-0.109375 0.125,-0.125 0.125,-0.171875 0,-0.0625 -0.0625,-0.09375 -0.109375,-0.09375 -0.15625,0 -1.140625,0.859375 -1.71875,2.03125 -0.609375,1.21875 -0.890625,2.484375 -0.890625,3.96875 0,1.0625 0.171875,2.484375 0.78125,3.75 C 2.671875,2.21875 3.640625,3 3.78125,3 3.828125,3 3.890625,2.96875 3.890625,2.90625 Z m 0,0"
                 id="path136" />
            </g>
            <g
               id="use81"
               transform="translate(42.517078,8.9659996)">
              <path
                 style="stroke:none"
                 d="m 3.4375,-7.65625 c 0,-0.28125 0,-0.296875 -0.234375,-0.296875 C 2.921875,-7.625 2.3125,-7.1875 1.09375,-7.1875 v 0.34375 c 0.265625,0 0.859375,0 1.53125,-0.296875 v 6.21875 c 0,0.4375 -0.046875,0.578125 -1.09375,0.578125 h -0.375 V 0 c 0.328125,-0.03125 1.484375,-0.03125 1.875,-0.03125 0.40625,0 1.546875,0 1.875,0.03125 v -0.34375 h -0.375 c -1.046875,0 -1.09375,-0.140625 -1.09375,-0.578125 z m 0,0"
                 id="path140" />
            </g>
          </g>
        </g>
        <g
           style="fill:#000000;fill-opacity:1"
           id="g89">
          <g
             id="use87"
             transform="translate(51.026001,8.9659996)">
            <path
               style="stroke:none"
               d="m 7.875,-2.75 c 0.203125,0 0.421875,0 0.421875,-0.234375 0,-0.25 -0.21875,-0.25 -0.421875,-0.25 H 1.40625 c -0.203125,0 -0.421875,0 -0.421875,0.25 0,0.234375 0.21875,0.234375 0.421875,0.234375 z m 0,0"
               id="path144" />
          </g>
        </g>
        <g
           clip-path="url(#clipPath8204)"
           clip-rule="nonzero"
           id="g95">
          <g
             style="fill:#000000;fill-opacity:1"
             id="g93">
            <g
               id="use91"
               transform="translate(62.980999,8.9659996)">
              <path
                 style="stroke:none"
                 d="m 5.265625,-5.15625 c 0,-0.0625 -0.046875,-0.109375 -0.109375,-0.109375 -0.09375,0 -0.546875,0.4375 -0.78125,0.859375 -0.21875,-0.546875 -0.578125,-0.859375 -1.09375,-0.859375 -1.359375,0 -2.8125,1.734375 -2.8125,3.515625 0,1.171875 0.6875,1.875 1.5,1.875 0.640625,0 1.15625,-0.484375 1.40625,-0.765625 L 3.390625,-0.625 2.9375,1.171875 2.828125,1.609375 c -0.109375,0.34375 -0.28125,0.34375 -0.84375,0.359375 -0.125,0 -0.25,0 -0.25,0.234375 0,0.078125 0.078125,0.109375 0.15625,0.109375 0.171875,0 0.375,-0.015625 0.546875,-0.015625 h 1.21875 c 0.1875,0 0.390625,0.015625 0.5625,0.015625 0.078125,0 0.21875,0 0.21875,-0.21875 0,-0.125 -0.09375,-0.125 -0.28125,-0.125 -0.5625,0 -0.59375,-0.078125 -0.59375,-0.171875 0,-0.0625 0.015625,-0.078125 0.046875,-0.234375 z m -1.6875,3.734375 C 3.53125,-1.21875 3.53125,-1.1875 3.359375,-0.96875 3.09375,-0.640625 2.5625,-0.125 2.015625,-0.125 1.515625,-0.125 1.25,-0.5625 1.25,-1.265625 c 0,-0.65625 0.359375,-2 0.59375,-2.5 0.40625,-0.84375 0.96875,-1.265625 1.4375,-1.265625 0.78125,0 0.9375,0.984375 0.9375,1.078125 0,0.015625 -0.03125,0.15625 -0.046875,0.1875 z m 0,0"
                 id="path148" />
            </g>
          </g>
        </g>
        <g
           style="fill:#000000;fill-opacity:1"
           id="g99">
          <g
             id="use97"
             transform="translate(68.170998,10.759)">
            <path
               style="stroke:none"
               d="m 2.25,-1.625 c 0.125,-0.125 0.453125,-0.390625 0.59375,-0.5 0.484375,-0.453125 0.953125,-0.890625 0.953125,-1.609375 0,-0.953125 -0.796875,-1.5625 -1.78125,-1.5625 -0.96875,0 -1.59375,0.71875 -1.59375,1.4375 0,0.390625 0.3125,0.4375 0.421875,0.4375 0.171875,0 0.421875,-0.109375 0.421875,-0.421875 0,-0.40625 -0.40625,-0.40625 -0.5,-0.40625 C 1,-4.84375 1.53125,-5.03125 1.921875,-5.03125 c 0.734375,0 1.125,0.625 1.125,1.296875 0,0.828125 -0.578125,1.4375 -1.53125,2.390625 l -1,1.046875 C 0.421875,-0.21875 0.421875,-0.203125 0.421875,0 H 3.5625 l 0.234375,-1.421875 h -0.25 C 3.53125,-1.265625 3.46875,-0.875 3.375,-0.71875 c -0.046875,0.0625 -0.65625,0.0625 -0.78125,0.0625 H 1.171875 Z m 0,0"
               id="path152" />
          </g>
        </g>
        <g
           clip-path="url(#clipPath9664)"
           clip-rule="nonzero"
           id="g105">
          <g
             style="fill:#000000;fill-opacity:1"
             id="g103">
            <g
               id="use101"
               transform="translate(72.903999,8.9659996)">
              <path
                 style="stroke:none"
                 d="M 3.375,-2.96875 C 3.375,-3.890625 3.25,-5.359375 2.578125,-6.75 1.875,-8.1875 0.890625,-8.96875 0.765625,-8.96875 c -0.046875,0 -0.109375,0.03125 -0.109375,0.09375 0,0.046875 0,0.0625 0.203125,0.265625 1.203125,1.203125 1.859375,3.1875 1.859375,5.625 0,2.3125 -0.5625,4.3125 -1.9375,5.71875 C 0.65625,2.84375 0.65625,2.875 0.65625,2.90625 0.65625,2.96875 0.71875,3 0.765625,3 0.921875,3 1.90625,2.140625 2.484375,0.96875 3.09375,-0.25 3.375,-1.546875 3.375,-2.96875 Z m 0,0"
                 id="path156" />
            </g>
          </g>
        </g>
      </g>
    </g>
    <g
       inkscape:label=""
       transform="translate(128.23159,161.65689)"
       id="g3981">
      <g
         id="g3979"
         transform="matrix(0.352778,0,0,0.352778,-0.413411,9.7028e-4)">
        <g
           clip-path="url(#clipPath7372)"
           clip-rule="nonzero"
           id="g3941">
          <g
             style="fill:#000000;fill-opacity:1"
             id="g58">
            <g
               id="g3935"
               transform="translate(0,8.9659996)">
              <path
                 style="stroke:none"
                 d="M 3.890625,2.90625 C 1.6494185,0.58460721 1.433099,-3.0111148 2.2106471,-5.9990239 2.3223142,-7.1247874 3.5780169,-8.1782127 3.78125,-8.96875 1.3389714,-7.1811388 0.81045274,-3.7368395 1.3822975,-0.92642593 1.7198735,0.5696182 2.4894712,2.2492743 3.8535156,2.9765625 Z"
                 id="path3933" />
            </g>
            <g
               id="use56"
               transform="translate(4.5525398,8.9659996)">
              <path
                 style="stroke:none"
                 d="M 3.4375,-7.65625 C 3.1308119,-8.3254572 1.9438276,-6.7846232 1.09375,-7.1875 1.1729963,-6.1981912 3.1438059,-7.859989 2.625,-6.2930581 2.6094322,-4.4113596 2.656292,-2.526977 2.6013184,-0.64697266 2.1514498,-0.38516929 0.18004345,-0.1604968 1.7907104,-0.02362061 2.6031348,-0.2373294 4.9005043,0.38440827 4.8120759,-0.34375 3.5796338,0.00283243 3.2757994,-0.98460422 3.4375,-1.9577901 c 0,-1.8994866 0,-3.7989733 0,-5.6984599 z"
                 id="path3937" />
            </g>
          </g>
        </g>
        <g
           style="fill:#000000;fill-opacity:1"
           id="g64">
          <g
             id="g3945"
             transform="translate(13.062,8.9659996)">
            <path
               style="stroke:none"
               d="M 7.875,-2.75 C 9.0144678,-3.2093259 7.1453822,-3.3150923 6.6507367,-3.234375 4.8073818,-3.214551 2.9596884,-3.274682 1.1191406,-3.203125 0.77208331,-2.4489533 2.2362618,-2.8517676 2.7246874,-2.75 c 1.7167708,0 3.4335417,0 5.1503126,0 z"
               id="path3943" />
          </g>
        </g>
        <g
           style="fill:#000000;fill-opacity:1"
           id="g3951">
          <g
             id="use66"
             transform="translate(25.017,8.9659996)">
            <path
               style="stroke:none"
               d="M 3.03125,-8 C 3.080055,-8.8553472 -0.02655302,-7.7538471 2.0800781,-7.7441406 2.188329,-7.1448221 1.8252142,-6.4661247 1.7273935,-5.8353054 1.3449155,-4.2060194 0.86129705,-2.5941568 0.546875,-0.953125 0.72638143,1.135586 3.3498373,-0.44160141 2.703125,-1.8125 2.680461,-0.94913859 1.184905,0.89578747 1.298584,-1.0673828 1.8525121,-3.3834308 2.4574961,-5.6883778 3.03125,-8 Z"
               id="path3948" />
          </g>
        </g>
        <g
           style="fill:#000000;fill-opacity:1"
           id="g3957">
          <g
             id="g3955"
             transform="translate(28.504,10.759)">
            <path
               style="stroke:none"
               d="M 3.953125,-2.90625 C 4.032244,-4.1287459 2.5131655,-3.1114076 3.5019531,-2.5800781 4.1989978,-1.2835949 1.4695035,1.1589814 1.5576172,-1.1862793 2.2003534,-2.094326 2.2079649,-4.3495402 0.65322876,-3.1547241 0.04389066,-2.6936023 0.35357447,-1.596791 0.67553711,-2.7629395 2.2420476,-4.2504919 0.80943056,-1.4422359 0.98422241,-0.65759277 1.9727468,1.2189098 3.9941714,-0.95158726 3.8967857,-2.4045525 l 0.031589,-0.1985054 z"
               id="path3953" />
          </g>
        </g>
        <g
           clip-path="url(#clipPath5987)"
           clip-rule="nonzero"
           id="g3965">
          <g
             style="fill:#000000;fill-opacity:1"
             id="g3963">
            <g
               id="g3961"
               transform="translate(33.411999,8.9659996)">
              <path
                 style="stroke:none"
                 d="m 3.375,-2.96875 c 0.00448,-2.2216865 -0.7321515,-4.6650475 -2.609375,-6 0.5482824,1.0396932 1.7283814,2.5263122 1.7998271,4.042563 C 2.9771807,-2.2198334 2.6579329,0.86784868 0.65625,2.90625 1.8639219,2.5563225 2.6394981,0.81526322 3.0339661,-0.43777466 3.2713094,-1.2588434 3.3756881,-2.1150731 3.375,-2.96875 Z"
                 id="path3959" />
            </g>
          </g>
        </g>
        <g
           clip-path="url(#clipPath4983)"
           clip-rule="nonzero"
           id="g84">
          <g
             style="fill:#000000;fill-opacity:1"
             id="g3971">
            <g
               id="g3969"
               transform="translate(37.964001,8.9659996)">
              <path
                 style="stroke:none"
                 d="M 5.265625,-5.15625 C 4.6773073,-5.3693743 4.3892676,-3.7599209 3.9394531,-5.0410156 1.9915867,-5.8855722 0.31614238,-3.2888193 0.47666931,-1.5358238 0.27098221,0.48360634 2.9806191,0.13540504 3.3445703,-0.44236921 3.1282876,0.30377319 3.0170144,1.0887765 2.729248,1.8083496 1.4223647,1.9269915 1.682588,2.4697236 2.8141964,2.296875 3.5186628,2.431495 5.3992512,2.0957055 3.6484375,1.9179688 3.5150388,1.3700787 3.8886675,0.69716053 3.970019,0.09951036 4.4018876,-1.6524098 4.8337563,-3.4043299 5.265625,-5.15625 Z m -1.6875,3.734375 C 3.2227139,0.32540003 0.55351697,0.08357807 1.3098145,-1.862793 1.1476925,-3.2761106 3.1207881,-6.4492017 4.1821289,-4.1611328 4.1446965,-3.2520612 3.7595832,-2.3272461 3.578125,-1.421875 Z"
                 id="path3967" />
            </g>
          </g>
        </g>
        <g
           style="fill:#000000;fill-opacity:1"
           id="g3977">
          <g
             id="use86"
             transform="translate(43.153999,10.759)">
            <path
               style="stroke:none"
               d="M 2.5,-5.078125 C 2.3192578,-5.4360854 1.002752,-4.7196193 0.765625,-4.6085268 1.6435864,-4.7490869 2.0884107,-4.7054098 1.875,-3.6042858 1.864,-2.5597572 1.897067,-1.5132688 1.858398,-0.4699707 1.3256699,-0.28543608 0.05113486,-0.05477739 1.4882808,-0.02734375 2.1341142,0.09724979 4.6808478,-0.15199199 2.842773,-0.28491211 2.1909629,-0.56414485 2.6272556,-1.5566608 2.5,-2.1630356 c 0,-0.9716964 0,-1.9433929 0,-2.9150894 z"
               id="path3974" />
          </g>
        </g>
      </g>
    </g>
    <rect
       style="fill:none;fill-opacity:1;stroke:#a3b6d1;stroke-width:0.22481;stroke-linecap:butt;stroke-linejoin:miter;stroke-miterlimit:4;stroke-dasharray:0.22481, 0.22481;stroke-dashoffset:0;stroke-opacity:1"
       id="rect15405-9"
       width="84.775192"
       height="14.08606"
       x="78.623329"
       y="160.59402" />
    <rect
       style="fill:none;fill-opacity:1;stroke:#a3b6d1;stroke-width:0.224725;stroke-linecap:butt;stroke-linejoin:miter;stroke-miterlimit:4;stroke-dasharray:0.224725, 0.224725;stroke-dashoffset:0;stroke-opacity:1"
       id="rect15405-9-8"
       width="84.775276"
       height="14.075275"
       x="78.623291"
       y="127.87887" />
    <text
       xml:space="preserve"
       style="font-weight:bold;font-size:5.64444px;line-height:1.25;font-family:'Bitstream Vera Sans Mono';-inkscape-font-specification:'Bitstream Vera Sans Mono, Bold';text-align:center;writing-mode:lr-tb;text-anchor:middle;fill:none;fill-opacity:1;stroke:#000000;stroke-width:0.357;stroke-linecap:butt;stroke-linejoin:miter;stroke-miterlimit:4;stroke-dasharray:none;stroke-dashoffset:0;stroke-opacity:1"
       x="157.86711"
       y="159.96381"
       id="text12090-1"><tspan
         sodipodi:role="line"
         id="tspan12088-29"
         style="font-style:normal;font-variant:normal;font-weight:500;font-stretch:normal;font-size:4.23333px;font-family:'CMU Sans Serif';-inkscape-font-specification:'CMU Sans Serif, Medium';font-variant-ligatures:normal;font-variant-caps:normal;font-variant-numeric:normal;font-variant-east-asian:normal;fill:#000000;fill-opacity:1;stroke:none;stroke-width:0.357"
         x="157.86711"
         y="159.96381">SES 1</tspan></text>
    <text
       xml:space="preserve"
       style="font-weight:bold;font-size:5.64444px;line-height:1.25;font-family:'Bitstream Vera Sans Mono';-inkscape-font-specification:'Bitstream Vera Sans Mono, Bold';text-align:center;writing-mode:lr-tb;text-anchor:middle;fill:none;fill-opacity:1;stroke:#000000;stroke-width:0.357;stroke-linecap:butt;stroke-linejoin:miter;stroke-miterlimit:4;stroke-dasharray:none;stroke-dashoffset:0;stroke-opacity:1"
       x="157.81543"
       y="146.22369"
       id="text12090-1-3"><tspan
         sodipodi:role="line"
         id="tspan12088-29-1"
         style="font-style:normal;font-variant:normal;font-weight:500;font-stretch:normal;font-size:4.23333px;font-family:'CMU Sans Serif';-inkscape-font-specification:'CMU Sans Serif, Medium';font-variant-ligatures:normal;font-variant-caps:normal;font-variant-numeric:normal;font-variant-east-asian:normal;fill:#000000;fill-opacity:1;stroke:none;stroke-width:0.357"
         x="157.81543"
         y="146.22369">SES 2</tspan></text>
    <path
       style="fill:none;stroke:#a3b6d1;stroke-width:0.27525;stroke-linecap:butt;stroke-linejoin:miter;stroke-dasharray:none;stroke-opacity:1"
       d="m 180.07664,139.17137 -1.14136,2.16404 2.28274,0.004 z"
       id="path155-5"
       sodipodi:nodetypes="cccc" />
    <path
       style="fill:none;stroke:#a3b6d1;stroke-width:0.27525;stroke-linecap:butt;stroke-linejoin:miter;stroke-dasharray:none;stroke-opacity:1"
       d="m 181.77605,134.55118 -1.14137,2.16405 2.28274,0.004 z"
       id="path155-5-9"
       sodipodi:nodetypes="cccc" />
    <path
       style="fill:#a3b6d1;fill-opacity:1;stroke:#a3b6d1;stroke-width:0.27525;stroke-linecap:butt;stroke-linejoin:miter;stroke-dasharray:none;stroke-opacity:1"
       d="m 176.00704,166.99853 -1.14136,2.16405 2.28274,0.004 z"
       id="path155-5-7"
       sodipodi:nodetypes="cccc" />
    <circle
       style="fill:none;fill-opacity:1;stroke:#a3b6d1;stroke-width:0.28275;stroke-linejoin:bevel;stroke-dasharray:none;stroke-dashoffset:0;stroke-opacity:1"
       id="path4567-6-5"
       cx="170.85126"
       cy="166.24149"
       r="1.2717783" />
    <circle
       style="fill:#a3b6d1;fill-opacity:1;stroke:#a3b6d1;stroke-width:0.28275;stroke-linejoin:bevel;stroke-dasharray:none;stroke-dashoffset:0;stroke-opacity:1"
       id="path4567-6-5-4"
       cx="175.68536"
       cy="136.15588"
       r="1.2717783" />
    <circle
       style="fill:#a3b6d1;fill-opacity:1;stroke:#a3b6d1;stroke-width:0.28275;stroke-linejoin:bevel;stroke-dasharray:none;stroke-dashoffset:0;stroke-opacity:1"
       id="path4567-6-5-4-9"
       cx="169.38228"
       cy="135.44069"
       r="1.2717783" />
    <circle
       style="fill:#a3b6d1;fill-opacity:1;stroke:#a3b6d1;stroke-width:0.28275;stroke-linejoin:bevel;stroke-dasharray:none;stroke-dashoffset:0;stroke-opacity:1"
       id="path4567-6-5-4-5"
       cx="176.80901"
       cy="145.04179"
       r="1.2717783" />
    <circle
       style="fill:#a3b6d1;fill-opacity:1;stroke:#a3b6d1;stroke-width:0.28275;stroke-linejoin:bevel;stroke-dasharray:none;stroke-dashoffset:0;stroke-opacity:1"
       id="path4567-6-5-4-5-0"
       cx="168.99268"
       cy="160.78983"
       r="1.2717783" />
    <circle
       style="fill:#a3b6d1;fill-opacity:1;stroke:#a3b6d1;stroke-width:0.28275;stroke-linejoin:bevel;stroke-dasharray:none;stroke-dashoffset:0;stroke-opacity:1"
       id="path4567-6-5-4-6"
       cx="170.63315"
       cy="143.39868"
       r="1.2717783" />
    <path
       style="fill:none;stroke:#000000;stroke-width:0.195467px;stroke-linecap:butt;stroke-linejoin:miter;stroke-opacity:1;marker-end:url(#RoundedArrow-2)"
       d="m 182.19233,145.08724 c 1.45217,0.96396 2.99914,2.97839 2.99914,6.62421 0,3.64581 -1.57495,5.7563 -3.01614,6.6242"
       id="path6888-8"
       sodipodi:nodetypes="czc" />
    <path
       style="fill:none;stroke:#000000;stroke-width:0.195137px;stroke-linecap:butt;stroke-linejoin:miter;stroke-opacity:1;marker-end:url(#RoundedArrow-2-7)"
       d="m 168.00773,158.35288 c -1.44403,-0.96612 -2.96747,-2.9851 -2.96747,-6.63913 0,-3.65403 1.55127,-5.76926 2.98438,-6.63912"
       id="path6888-8-2"
       sodipodi:nodetypes="czc" />
    <rect
       style="fill:none;fill-opacity:1;stroke:#000000;stroke-width:0.192969;stroke-linecap:butt;stroke-linejoin:miter;stroke-miterlimit:4;stroke-dasharray:none;stroke-dashoffset:0;stroke-opacity:1"
       id="rect11446"
       width="20.03723"
       height="19.788494"
       x="165.52441"
       y="127.86299"
       rx="1.1183332"
       ry="1.5916903" />
    <rect
       style="fill:none;fill-opacity:1;stroke:#000000;stroke-width:0.1917;stroke-linecap:butt;stroke-linejoin:miter;stroke-miterlimit:4;stroke-dasharray:none;stroke-dashoffset:0;stroke-opacity:1"
       id="rect11446-6"
       width="19.435215"
       height="20.133839"
       x="165.78574"
       y="154.56281"
       rx="1.0847329"
       ry="1.6194683" />
    <text
       xml:space="preserve"
       style="font-weight:bold;font-size:5.64444px;line-height:1.25;font-family:'Bitstream Vera Sans Mono';-inkscape-font-specification:'Bitstream Vera Sans Mono, Bold';text-align:center;writing-mode:lr-tb;text-anchor:middle;fill:none;fill-opacity:1;stroke:#000000;stroke-width:0.357;stroke-linecap:butt;stroke-linejoin:miter;stroke-miterlimit:4;stroke-dasharray:none;stroke-dashoffset:0;stroke-opacity:1"
       x="170.33667"
       y="131.45451"
       id="text12090"><tspan
         sodipodi:role="line"
         id="tspan12088"
         style="font-style:normal;font-variant:normal;font-weight:500;font-stretch:normal;font-size:4.23333px;font-family:'CMU Sans Serif';-inkscape-font-specification:'CMU Sans Serif, Medium';font-variant-ligatures:normal;font-variant-caps:normal;font-variant-numeric:normal;font-variant-east-asian:normal;fill:#000000;fill-opacity:1;stroke:none;stroke-width:0.357"
         x="170.33667"
         y="131.45451">cell i</tspan></text>
    <text
       xml:space="preserve"
       style="font-weight:bold;font-size:5.64444px;line-height:1.25;font-family:'Bitstream Vera Sans Mono';-inkscape-font-specification:'Bitstream Vera Sans Mono, Bold';text-align:center;writing-mode:lr-tb;text-anchor:middle;fill:none;fill-opacity:1;stroke:#000000;stroke-width:0.357;stroke-linecap:butt;stroke-linejoin:miter;stroke-miterlimit:4;stroke-dasharray:none;stroke-dashoffset:0;stroke-opacity:1"
       x="171.09778"
       y="172.79822"
       id="text12090-0"><tspan
         sodipodi:role="line"
         id="tspan12088-2"
         style="font-style:normal;font-variant:normal;font-weight:500;font-stretch:normal;font-size:4.23333px;font-family:'CMU Sans Serif';-inkscape-font-specification:'CMU Sans Serif, Medium';font-variant-ligatures:normal;font-variant-caps:normal;font-variant-numeric:normal;font-variant-east-asian:normal;fill:#000000;fill-opacity:1;stroke:none;stroke-width:0.357"
         x="171.09778"
         y="172.79822">cell j</tspan></text>
    <g
       inkscape:label=""
       transform="translate(179.93987,155.1577)"
       id="g12528">
      <g
         id="g12526"
         transform="matrix(0.352778,0,0,0.352778,-2.2546587,-4.2604896)">
        <g
           style="fill:#000000;fill-opacity:1"
           id="g29">
          <g
             id="use27"
             transform="translate(0,5.1469998)">
            <path
               style="stroke:none"
               d="M 2.46875,-3.5 C 2.484375,-3.578125 2.78125,-4.171875 3.234375,-4.546875 3.53125,-4.84375 3.9375,-5.03125 4.40625,-5.03125 c 0.484375,0 0.65625,0.359375 0.65625,0.828125 0,0.078125 0,0.3125 -0.15625,0.875 L 4.609375,-2.09375 c -0.09375,0.359375 -0.3125,1.25 -0.34375,1.375 -0.046875,0.1875 -0.125,0.484375 -0.125,0.546875 0,0.15625 0.140625,0.296875 0.3125,0.296875 0.359375,0 0.421875,-0.28125 0.53125,-0.703125 L 5.703125,-3.4375 C 5.71875,-3.53125 6.34375,-5.03125 7.65625,-5.03125 c 0.484375,0 0.65625,0.359375 0.65625,0.828125 0,0.671875 -0.46875,1.984375 -0.734375,2.703125 -0.109375,0.28125 -0.171875,0.4375 -0.171875,0.65625 0,0.53125 0.375,0.96875 0.953125,0.96875 1.109375,0 1.53125,-1.765625 1.53125,-1.828125 0,-0.0625 -0.046875,-0.109375 -0.125,-0.109375 -0.109375,0 -0.125,0.03125 -0.171875,0.234375 C 9.3125,-0.625 8.875,-0.125 8.390625,-0.125 c -0.125,0 -0.3125,0 -0.3125,-0.390625 0,-0.3125 0.140625,-0.6875 0.1875,-0.828125 0.21875,-0.5625 0.765625,-1.984375 0.765625,-2.671875 0,-0.71875 -0.421875,-1.25 -1.328125,-1.25 -0.8125,0 -1.453125,0.453125 -1.9375,1.15625 -0.03125,-0.640625 -0.421875,-1.15625 -1.3125,-1.15625 -1.078125,0 -1.625,0.75 -1.84375,1.046875 -0.046875,-0.6875 -0.53125,-1.046875 -1.0625,-1.046875 -0.34375,0 -0.609375,0.15625 -0.84375,0.609375 -0.21875,0.4375 -0.375,1.171875 -0.375,1.21875 0,0.046875 0.046875,0.109375 0.125,0.109375 0.09375,0 0.109375,-0.015625 0.1875,-0.296875 0.171875,-0.703125 0.40625,-1.40625 0.875,-1.40625 0.28125,0 0.375,0.1875 0.375,0.546875 0,0.265625 -0.125,0.734375 -0.203125,1.109375 l -0.34375,1.28125 c -0.046875,0.234375 -0.171875,0.765625 -0.234375,0.984375 -0.078125,0.3125 -0.21875,0.875 -0.21875,0.9375 0,0.15625 0.140625,0.296875 0.3125,0.296875 0.140625,0 0.3125,-0.078125 0.40625,-0.25 C 1.640625,-0.1875 1.75,-0.609375 1.8125,-0.84375 l 0.25,-1.078125 z m 0,0"
               id="path46" />
          </g>
        </g>
        <g
           clip-path="url(#clipPath8372)"
           clip-rule="nonzero"
           id="g39">
          <g
             style="fill:#000000;fill-opacity:1"
             id="g37">
            <g
               id="use31"
               transform="translate(10.239,6.9400001)">
              <path
                 style="stroke:none"
                 d="m 2.375,-4.96875 c 0,-0.171875 -0.125,-0.3125 -0.3125,-0.3125 -0.203125,0 -0.4375,0.203125 -0.4375,0.4375 0,0.171875 0.125,0.296875 0.3125,0.296875 0.203125,0 0.4375,-0.1875 0.4375,-0.421875 z m -1.15625,2.921875 -0.4375,1.09375 c -0.046875,0.125 -0.078125,0.21875 -0.078125,0.359375 0,0.390625 0.296875,0.671875 0.71875,0.671875 0.78125,0 1.109375,-1.109375 1.109375,-1.21875 0,-0.078125 -0.0625,-0.109375 -0.125,-0.109375 -0.09375,0 -0.109375,0.0625 -0.140625,0.140625 -0.171875,0.640625 -0.5,0.96875 -0.828125,0.96875 -0.09375,0 -0.1875,-0.046875 -0.1875,-0.25 0,-0.203125 0.0625,-0.34375 0.15625,-0.59375 C 1.484375,-1.1875 1.5625,-1.40625 1.65625,-1.625 l 0.25,-0.640625 c 0.0625,-0.1875 0.171875,-0.4375 0.171875,-0.578125 0,-0.390625 -0.328125,-0.671875 -0.734375,-0.671875 -0.765625,0 -1.109375,1.109375 -1.109375,1.21875 0,0.078125 0.0625,0.109375 0.125,0.109375 0.109375,0 0.109375,-0.046875 0.140625,-0.125 0.21875,-0.765625 0.578125,-0.984375 0.828125,-0.984375 0.109375,0 0.1875,0.046875 0.1875,0.265625 0,0.078125 -0.015625,0.1875 -0.09375,0.4375 z m 0,0"
                 id="path50" />
            </g>
            <g
               id="use33"
               transform="translate(13.121785,6.9400001)">
              <path
                 style="stroke:none"
                 d="m 1.484375,-0.125 c 0,0.515625 -0.109375,0.984375 -0.59375,1.46875 C 0.859375,1.375 0.84375,1.390625 0.84375,1.421875 c 0,0.0625 0.0625,0.109375 0.109375,0.109375 0.09375,0 0.765625,-0.625 0.765625,-1.5625 0,-0.5 -0.203125,-0.859375 -0.546875,-0.859375 -0.28125,0 -0.4375,0.234375 -0.4375,0.4375 C 0.734375,-0.21875 0.890625,0 1.171875,0 1.375,0 1.484375,-0.109375 1.484375,-0.125 Z m 0,0"
                 id="path54" />
            </g>
            <g
               id="use35"
               transform="translate(15.473762,6.9400001)">
              <path
                 style="stroke:none"
                 d="m 3.296875,-4.96875 c 0,-0.15625 -0.125,-0.3125 -0.3125,-0.3125 -0.25,0 -0.453125,0.234375 -0.453125,0.4375 0,0.15625 0.125,0.296875 0.3125,0.296875 0.234375,0 0.453125,-0.21875 0.453125,-0.421875 z M 1.625,0.390625 c -0.125,0.5 -0.515625,1.015625 -1,1.015625 -0.125,0 -0.25,-0.03125 -0.265625,-0.046875 0.25,-0.109375 0.28125,-0.328125 0.28125,-0.40625 0,-0.1875 -0.140625,-0.296875 -0.3125,-0.296875 -0.21875,0 -0.4375,0.203125 -0.4375,0.46875 0,0.296875 0.296875,0.5 0.75,0.5 C 1.125,1.625 2,1.328125 2.234375,0.359375 l 0.71875,-2.84375 C 2.984375,-2.578125 3,-2.640625 3,-2.765625 c 0,-0.4375 -0.359375,-0.75 -0.8125,-0.75 -0.84375,0 -1.34375,1.109375 -1.34375,1.21875 0,0.078125 0.0625,0.109375 0.125,0.109375 0.078125,0 0.09375,-0.03125 0.140625,-0.140625 0.25,-0.5625 0.65625,-0.96875 1.046875,-0.96875 0.171875,0 0.265625,0.125 0.265625,0.375 0,0.109375 -0.015625,0.234375 -0.046875,0.34375 z m 0,0"
                 id="path58" />
            </g>
          </g>
        </g>
      </g>
    </g>
    <g
       inkscape:label=""
       transform="translate(165.76635,150.46228)"
       id="g12973">
      <g
         id="g12971"
         transform="matrix(0.352778,0,0,0.352778,-0.115755,0.0418483)">
        <g
           style="fill:#000000;fill-opacity:1"
           id="g32">
          <g
             id="use30"
             transform="translate(0,5.1469998)">
            <path
               style="stroke:none"
               d="M 2.46875,-3.5 C 2.484375,-3.578125 2.78125,-4.171875 3.234375,-4.546875 3.53125,-4.84375 3.9375,-5.03125 4.40625,-5.03125 c 0.484375,0 0.65625,0.359375 0.65625,0.828125 0,0.078125 0,0.3125 -0.15625,0.875 L 4.609375,-2.09375 c -0.09375,0.359375 -0.3125,1.25 -0.34375,1.375 -0.046875,0.1875 -0.125,0.484375 -0.125,0.546875 0,0.15625 0.140625,0.296875 0.3125,0.296875 0.359375,0 0.421875,-0.28125 0.53125,-0.703125 L 5.703125,-3.4375 C 5.71875,-3.53125 6.34375,-5.03125 7.65625,-5.03125 c 0.484375,0 0.65625,0.359375 0.65625,0.828125 0,0.671875 -0.46875,1.984375 -0.734375,2.703125 -0.109375,0.28125 -0.171875,0.4375 -0.171875,0.65625 0,0.53125 0.375,0.96875 0.953125,0.96875 1.109375,0 1.53125,-1.765625 1.53125,-1.828125 0,-0.0625 -0.046875,-0.109375 -0.125,-0.109375 -0.109375,0 -0.125,0.03125 -0.171875,0.234375 C 9.3125,-0.625 8.875,-0.125 8.390625,-0.125 c -0.125,0 -0.3125,0 -0.3125,-0.390625 0,-0.3125 0.140625,-0.6875 0.1875,-0.828125 0.21875,-0.5625 0.765625,-1.984375 0.765625,-2.671875 0,-0.71875 -0.421875,-1.25 -1.328125,-1.25 -0.8125,0 -1.453125,0.453125 -1.9375,1.15625 -0.03125,-0.640625 -0.421875,-1.15625 -1.3125,-1.15625 -1.078125,0 -1.625,0.75 -1.84375,1.046875 -0.046875,-0.6875 -0.53125,-1.046875 -1.0625,-1.046875 -0.34375,0 -0.609375,0.15625 -0.84375,0.609375 -0.21875,0.4375 -0.375,1.171875 -0.375,1.21875 0,0.046875 0.046875,0.109375 0.125,0.109375 0.09375,0 0.109375,-0.015625 0.1875,-0.296875 0.171875,-0.703125 0.40625,-1.40625 0.875,-1.40625 0.28125,0 0.375,0.1875 0.375,0.546875 0,0.265625 -0.125,0.734375 -0.203125,1.109375 l -0.34375,1.28125 c -0.046875,0.234375 -0.171875,0.765625 -0.234375,0.984375 -0.078125,0.3125 -0.21875,0.875 -0.21875,0.9375 0,0.15625 0.140625,0.296875 0.3125,0.296875 0.140625,0 0.3125,-0.078125 0.40625,-0.25 C 1.640625,-0.1875 1.75,-0.609375 1.8125,-0.84375 l 0.25,-1.078125 z m 0,0"
               id="path53" />
          </g>
        </g>
        <g
           clip-path="url(#clipPath3219)"
           clip-rule="nonzero"
           id="g12961">
          <g
             style="fill:#000000;fill-opacity:1"
             id="g36">
            <g
               id="use34"
               transform="translate(10.239,6.9400001)">
              <path
                 style="stroke:none"
                 d="m 3.296875,-4.96875 c 0,-0.15625 -0.125,-0.3125 -0.3125,-0.3125 -0.25,0 -0.453125,0.234375 -0.453125,0.4375 0,0.15625 0.125,0.296875 0.3125,0.296875 0.234375,0 0.453125,-0.21875 0.453125,-0.421875 z M 1.625,0.390625 c -0.125,0.5 -0.515625,1.015625 -1,1.015625 -0.125,0 -0.25,-0.03125 -0.265625,-0.046875 0.25,-0.109375 0.28125,-0.328125 0.28125,-0.40625 0,-0.1875 -0.140625,-0.296875 -0.3125,-0.296875 -0.21875,0 -0.4375,0.203125 -0.4375,0.46875 0,0.296875 0.296875,0.5 0.75,0.5 C 1.125,1.625 2,1.328125 2.234375,0.359375 l 0.71875,-2.84375 C 2.984375,-2.578125 3,-2.640625 3,-2.765625 c 0,-0.4375 -0.359375,-0.75 -0.8125,-0.75 -0.84375,0 -1.34375,1.109375 -1.34375,1.21875 0,0.078125 0.0625,0.109375 0.125,0.109375 0.078125,0 0.09375,-0.03125 0.140625,-0.140625 0.25,-0.5625 0.65625,-0.96875 1.046875,-0.96875 0.171875,0 0.265625,0.125 0.265625,0.375 0,0.109375 -0.015625,0.234375 -0.046875,0.34375 z m 0,0"
                 id="path57" />
            </g>
          </g>
        </g>
        <g
           clip-path="url(#clipPath6167)"
           clip-rule="nonzero"
           id="g46">
          <g
             style="fill:#000000;fill-opacity:1"
             id="g12968">
            <g
               id="g12964"
               transform="translate(13.655782,6.9400001)">
              <path
                 style="stroke:none"
                 d="m 1.484375,-0.125 c 0,0.515625 -0.109375,0.984375 -0.59375,1.46875 C 0.859375,1.375 0.84375,1.390625 0.84375,1.421875 c 0,0.0625 0.0625,0.109375 0.109375,0.109375 0.09375,0 0.765625,-0.625 0.765625,-1.5625 0,-0.5 -0.203125,-0.859375 -0.546875,-0.859375 -0.28125,0 -0.4375,0.234375 -0.4375,0.4375 C 0.734375,-0.21875 0.890625,0 1.171875,0 1.375,0 1.484375,-0.109375 1.484375,-0.125 Z m 0,0"
                 id="path61" />
            </g>
            <g
               id="use42"
               transform="translate(16.007757,6.9400001)">
              <path
                 style="stroke:none"
                 d="m 2.375,-4.96875 c 0,-0.171875 -0.125,-0.3125 -0.3125,-0.3125 -0.203125,0 -0.4375,0.203125 -0.4375,0.4375 0,0.171875 0.125,0.296875 0.3125,0.296875 0.203125,0 0.4375,-0.1875 0.4375,-0.421875 z m -1.15625,2.921875 -0.4375,1.09375 c -0.046875,0.125 -0.078125,0.21875 -0.078125,0.359375 0,0.390625 0.296875,0.671875 0.71875,0.671875 0.78125,0 1.109375,-1.109375 1.109375,-1.21875 0,-0.078125 -0.0625,-0.109375 -0.125,-0.109375 -0.09375,0 -0.109375,0.0625 -0.140625,0.140625 -0.171875,0.640625 -0.5,0.96875 -0.828125,0.96875 -0.09375,0 -0.1875,-0.046875 -0.1875,-0.25 0,-0.203125 0.0625,-0.34375 0.15625,-0.59375 C 1.484375,-1.1875 1.5625,-1.40625 1.65625,-1.625 l 0.25,-0.640625 c 0.0625,-0.1875 0.171875,-0.4375 0.171875,-0.578125 0,-0.390625 -0.328125,-0.671875 -0.734375,-0.671875 -0.765625,0 -1.109375,1.109375 -1.109375,1.21875 0,0.078125 0.0625,0.109375 0.125,0.109375 0.109375,0 0.109375,-0.046875 0.140625,-0.125 0.21875,-0.765625 0.578125,-0.984375 0.828125,-0.984375 0.109375,0 0.1875,0.046875 0.1875,0.265625 0,0.078125 -0.015625,0.1875 -0.09375,0.4375 z m 0,0"
                 id="path65" />
            </g>
          </g>
        </g>
      </g>
    </g>
    <path
       style="fill:none;stroke:#a3b6d1;stroke-width:0.27525;stroke-linecap:butt;stroke-linejoin:miter;stroke-dasharray:none;stroke-opacity:1"
       d="m 179.72267,161.56784 -1.14136,2.16404 2.28273,0.004 z"
       id="path155-5-9-3"
       sodipodi:nodetypes="cccc" />
    <path
       style="fill:none;stroke:#a3b6d1;stroke-width:0.27525;stroke-linecap:butt;stroke-linejoin:miter;stroke-dasharray:none;stroke-opacity:1"
       d="m 181.43328,166.55188 -1.14137,2.16404 2.28274,0.004 z"
       id="path155-5-9-7"
       sodipodi:nodetypes="cccc" />
    <path
       style="fill:none;stroke:#a3b6d1;stroke-width:0.27525;stroke-linecap:butt;stroke-linejoin:miter;stroke-dasharray:none;stroke-opacity:1"
       d="m 173.18055,156.20336 -1.14136,2.16404 2.28274,0.004 z"
       id="path155-5-9-4"
       sodipodi:nodetypes="cccc" />
  </g>
</svg>
